<svg width="24" height="24" viewBox="0 0 24 24" fill="none" xmlns="http://www.w3.org/2000/svg">
<path d="M21 10H18.4L18.7 9.7C19.1 9.3 19.1 8.7 18.7 8.3C18.3 7.9 17.7 7.9 17.3 8.3L15.3 10.3C15.2 10.4 15.1 10.5 15.1 10.6C15 10.8 15 11.1 15.1 11.4C15.2 11.5 15.2 11.6 15.3 11.7L17.3 13.7C17.5 13.9 17.8 14 18 14C18.2 14 18.5 13.9 18.7 13.7C19.1 13.3 19.1 12.7 18.7 12.3L18.4 12H21C21.6 12 22 11.6 22 11C22 10.4 21.6 10 21 10Z" fill="black"/>
<path d="M17 15C16.4 15 16 15.4 16 16C16 16.6 15.6 17 15 17H14V8.4C14 7.1 13.2 6 12.1 5.6L10.5 5H15C15.6 5 16 5.4 16 6C16 6.6 16.4 7 17 7C17.6 7 18 6.6 18 6C18 4.3 16.7 3 15 3H5C4.9 3 4.8 3 4.7 3.1C4.6 3.1 4.5 3.2 4.5 3.2L4.4 3.3C4.3 3.3 4.2 3.4 4.2 3.5V3.6C4.1 3.6 4 3.7 4 3.8V18C4 18.4 4.3 18.8 4.6 18.9L11.2 21.4C11.4 21.5 11.7 21.5 11.9 21.5C12.3 21.5 12.7 21.4 13 21.1C13.5 20.7 13.9 20.1 13.9 19.5V19H14.9C16.5 19 17.9 17.7 17.9 16C18 15.5 17.5 15 17 15ZM6 17.3V5.4L11.3 7.4C11.7 7.6 12 8 12 8.4V19.5L6 17.3Z" fill="black"/>
</svg>
