<svg width="38" height="38" viewBox="0 0 38 38" fill="none" xmlns="http://www.w3.org/2000/svg">
<path d="M32.6483 13.3791C30.9858 6.06409 24.605 2.77075 19 2.77075C19 2.77075 19 2.77075 18.9842 2.77075C13.395 2.77075 6.99833 6.04825 5.33583 13.3633C3.48333 21.5333 8.48667 28.4524 13.015 32.8066C14.6933 34.4216 16.8467 35.2291 19 35.2291C21.1533 35.2291 23.3067 34.4216 24.9692 32.8066C29.4975 28.4524 34.5008 21.5491 32.6483 13.3791ZM19 21.3116C16.245 21.3116 14.0125 19.0791 14.0125 16.3241C14.0125 13.5691 16.245 11.3366 19 11.3366C21.755 11.3366 23.9875 13.5691 23.9875 16.3241C23.9875 19.0791 21.755 21.3116 19 21.3116Z" fill="#0A256C"/>
</svg>
