<svg width="285" height="259" viewBox="0 0 285 259" fill="none" xmlns="http://www.w3.org/2000/svg">
<g clip-path="url(#clip0_9_11283)">
<path d="M196.85 257.646H116.022C103.899 257.646 94.0356 247.783 94.0356 235.659V21.9863C94.0356 9.86308 103.899 0 116.022 0H196.85C208.973 0 218.836 9.86308 218.836 21.9863C220.341 107.791 222.907 203.878 218.836 235.659C218.836 247.783 208.973 257.646 196.85 257.646H196.85Z" fill="#82CAE0"/>
<path d="M219.964 78.5962C219.451 78.5962 219.034 79.0133 219.034 79.5263V109.29C219.034 109.803 219.451 110.221 219.964 110.221C220.477 110.221 220.894 109.803 220.894 109.29V79.5263C220.894 79.0133 220.477 78.5962 219.964 78.5962Z" fill="#82CAE0"/>
<path d="M216.744 21.9867V235.656C216.744 246.208 208.531 254.84 198.146 255.509H198.141C197.988 255.519 197.834 255.528 197.676 255.533C197.402 255.547 197.128 255.551 196.848 255.551C196.848 255.551 195.825 255.477 193.956 255.337C192.068 255.198 189.319 254.988 185.892 254.714C184.864 254.635 183.78 254.547 182.636 254.454C180.357 254.268 177.855 254.063 175.172 253.83C174.102 253.742 172.995 253.644 171.865 253.547C166.089 253.049 159.62 252.468 152.798 251.807C151.644 251.7 150.482 251.589 149.31 251.473C149.003 251.44 96.1288 238.149 96.1288 235.656V21.9867C96.1288 10.9973 105.035 2.09131 116.024 2.09131H127.902C129.799 2.09131 131.325 3.57021 131.488 5.46302C131.502 5.5886 131.516 5.71415 131.539 5.83973C131.883 7.74185 133.627 9.06727 135.562 9.06727H177.311C179.246 9.06727 180.99 7.74185 181.334 5.83973C181.357 5.71415 181.371 5.5886 181.385 5.46302C181.548 3.57021 183.073 2.09131 184.971 2.09131H196.848C207.838 2.09131 216.744 10.9973 216.744 21.9867H216.744Z" fill="#262626"/>
<path d="M93.5708 56.272C93.0578 56.272 92.6406 56.6891 92.6406 57.2021V64.6431C92.6406 65.1561 93.0578 65.5733 93.5708 65.5733C94.0837 65.5733 94.5009 65.1561 94.5009 64.6431V57.2021C94.5009 56.6891 94.0837 56.272 93.5708 56.272Z" fill="#82CAE0"/>
<path d="M93.5708 78.5962C93.0578 78.5962 92.6406 79.0133 92.6406 79.5263V93.9433C92.6406 94.4563 93.0578 94.8734 93.5708 94.8734C94.0837 94.8734 94.5009 94.4563 94.5009 93.9433V79.5263C94.5009 79.0133 94.0837 78.5962 93.5708 78.5962V78.5962Z" fill="#82CAE0"/>
<path d="M93.5708 99.0591C93.0578 99.0591 92.6406 99.4762 92.6406 99.9892V114.406C92.6406 114.919 93.0578 115.336 93.5708 115.336C94.0837 115.336 94.5009 114.919 94.5009 114.406V99.9892C94.5009 99.4762 94.0837 99.0591 93.5708 99.0591Z" fill="#82CAE0"/>
<path d="M127.597 5.34863H109.772C109.686 5.34863 109.616 5.41866 109.616 5.50504V7.51755C109.616 7.60393 109.686 7.67395 109.772 7.67395H127.597C127.683 7.67395 127.753 7.60393 127.753 7.51755V5.50504C127.753 5.41866 127.683 5.34863 127.597 5.34863Z" fill="#E6E6E6"/>
<path d="M187.91 7.67266C188.937 7.67266 189.77 6.83979 189.77 5.8124C189.77 4.78501 188.937 3.95215 187.91 3.95215C186.883 3.95215 186.05 4.78501 186.05 5.8124C186.05 6.83979 186.883 7.67266 187.91 7.67266Z" fill="#E6E6E6"/>
<path d="M193.026 7.67266C194.053 7.67266 194.886 6.83979 194.886 5.8124C194.886 4.78501 194.053 3.95215 193.026 3.95215C191.998 3.95215 191.165 4.78501 191.165 5.8124C191.165 6.83979 191.998 7.67266 193.026 7.67266Z" fill="#E6E6E6"/>
<path d="M198.141 7.67266C199.168 7.67266 200.001 6.83979 200.001 5.8124C200.001 4.78501 199.168 3.95215 198.141 3.95215C197.114 3.95215 196.281 4.78501 196.281 5.8124C196.281 6.83979 197.114 7.67266 198.141 7.67266Z" fill="#E6E6E6"/>
<path d="M7.21722 257.696C7.21722 258.029 7.48446 258.296 7.81724 258.296H284.261C284.594 258.296 284.861 258.029 284.861 257.696C284.861 257.363 284.594 257.096 284.261 257.096H7.81724C7.48446 257.096 7.21722 257.363 7.21722 257.696Z" fill="#CCCCCC"/>
<path d="M95.3599 253.755L89.6909 253.754L86.9941 231.888L95.3611 231.888L95.3599 253.755Z" fill="#FFB6B6"/>
<path d="M75.937 253.627C75.7605 253.924 75.6674 254.883 75.6674 255.229C75.6674 256.292 76.5288 257.153 77.5914 257.153H95.1477C95.8726 257.153 96.4603 256.565 96.4603 255.84V255.11C96.4603 255.11 97.3288 252.913 95.5408 250.205C95.5408 250.205 93.3184 252.325 89.9977 249.004L89.0184 247.23L81.93 252.415L78.0009 252.898C77.1413 253.004 76.3792 252.882 75.9371 253.627H75.937V253.627H75.937Z" fill="#2F2E41"/>
<path d="M64.0096 223.385L58.3406 223.367L55.7133 201.492L64.0802 201.519L64.0096 223.385Z" fill="#FFB6B6"/>
<path d="M44.5872 223.194C44.4098 223.491 44.3136 224.45 44.3125 224.795C44.3091 225.858 45.1678 226.722 46.2305 226.726L63.7867 226.781C64.5116 226.784 65.1011 226.198 65.1035 225.473L65.1058 224.742C65.1058 224.742 65.9812 222.548 64.2018 219.835C64.2018 219.835 61.9727 221.948 58.6625 218.616L57.6889 216.839L50.584 222.001L46.6535 222.472C45.7936 222.575 45.0318 222.451 44.5873 223.194H44.5872V223.194Z" fill="#2F2E41"/>
<path d="M87.0915 121.006L80.0328 121.51C80.0328 121.51 56.1363 135.097 54.1196 138.122C52.1028 141.147 49.3297 145.433 51.8507 149.97C54.3716 154.508 52.453 209.451 52.453 209.451L64.4995 206.726L72.2178 149.241L88.352 146.972C88.352 146.972 93.8981 158.937 91.8814 168.837C89.8646 178.736 88.8562 184.786 88.8562 184.786L86.3353 243.273L96.167 243.021L104.99 188.82L120.116 145.963L100.453 122.771L87.0915 121.006Z" fill="#2F2E41"/>
<path d="M121.881 58.9907L107.259 60.5033L105.747 65.5452L91.6293 73.1081L96.167 104.872L92.6377 110.418L94.1502 115.965C94.1502 115.965 90.1167 116.469 90.6209 119.494L81.5454 121.006C81.5454 121.006 93.5825 123.464 96.1352 135.596C98.688 147.729 119.864 149.241 119.864 149.241L136.502 97.3094L138.015 66.5536L126.419 63.5285L121.881 58.9907Z" fill="#E6E6E6"/>
<path d="M114.175 57.0768C120.453 57.0768 125.542 51.9878 125.542 45.7103C125.542 39.4327 120.453 34.3438 114.175 34.3438C107.898 34.3438 102.809 39.4327 102.809 45.7103C102.809 51.9878 107.898 57.0768 114.175 57.0768Z" fill="#FFB6B6"/>
<path d="M108.268 55.966C108.268 55.966 98.1839 55.4618 99.1923 47.3947C96.6964 38.8041 98.9055 33.2264 106.755 31.2605C106.755 31.2605 108.772 30.7563 109.276 30.7563C115.908 30.7563 119.36 32.7731 119.36 32.7731C119.36 32.7731 118.856 30.7762 119.36 31.2705C119.864 31.7647 120.368 32.7731 120.368 32.7731C120.368 32.7731 125.41 35.2941 125.41 40.336C125.41 45.3779 125.41 43.3612 125.41 43.3612C125.41 43.3612 124.402 43.3612 123.394 40.336C122.385 37.3109 115.856 39.3276 115.856 39.3276L116.335 40.336L114.822 39.8318L113.31 41.3444L112.301 40.8402C112.301 40.8402 108.268 40.8402 108.772 40.8402C109.276 40.8402 108.925 44.2667 108.925 44.2667L105.243 48.4031L109.276 55.966H108.268Z" fill="#2F2E41"/>
<path d="M54.5437 116.142C51.6731 117.709 50.1543 120.46 51.1513 122.287C52.1482 124.113 55.2835 124.324 58.154 122.757C59.4106 122.072 60.408 121.159 61.0489 120.196L73.129 113.405L69.8214 107.804L58.2639 115.093C57.1075 115.111 55.8002 115.457 54.5437 116.142H54.5437Z" fill="#FFB6B6"/>
<path d="M95.2818 73.3428C95.2818 73.3428 90.5463 71.5398 88.9148 73.7101C87.2832 75.8804 76.5051 102.215 76.5051 102.215L60.6917 110.473L65.1385 118.217L85.5015 111.438L98.9366 86.8666L95.2818 73.3428Z" fill="#E6E6E6"/>
<path d="M244.609 159.828V213.273C244.609 217.999 240.764 221.844 236.038 221.844H103.939C99.213 221.844 95.368 217.999 95.368 213.273V159.828C95.368 155.102 99.213 151.257 103.939 151.257H236.038C240.764 151.257 244.609 155.102 244.609 159.828Z" fill="#8A8A8A"/>
<path d="M244.609 159.828V213.273C244.609 217.999 240.764 221.844 236.038 221.844H103.939C99.213 221.844 95.368 217.999 95.368 213.273V159.828C95.368 155.102 99.213 151.257 103.939 151.257H236.038C240.764 151.257 244.609 155.102 244.609 159.828ZM236.038 220.835C240.215 220.835 243.601 217.449 243.601 213.273V186.328C243.601 167.516 228.35 152.265 209.538 152.265H103.939C99.7625 152.265 96.3764 155.651 96.3764 159.828V213.273C96.3764 217.449 99.7625 220.835 103.939 220.835H236.038Z" fill="#82CAE0"/>
<path d="M154.667 183.545H137.413C136.978 183.545 136.624 183.899 136.624 184.334C136.624 184.769 136.978 185.123 137.413 185.123H154.667C155.101 185.123 155.455 184.769 155.455 184.334C155.455 183.899 155.101 183.545 154.667 183.545Z" fill="#82CAE0"/>
<path d="M180.884 183.545H163.631C163.196 183.545 162.842 183.899 162.842 184.334C162.842 184.769 163.196 185.123 163.631 185.123H180.884C181.319 185.123 181.673 184.769 181.673 184.334C181.673 183.899 181.319 183.545 180.884 183.545Z" fill="#82CAE0"/>
<path d="M154.666 192.171H137.413C136.978 192.171 136.624 192.525 136.624 192.96C136.624 193.395 136.978 193.749 137.413 193.749H154.666C155.101 193.749 155.455 193.395 155.455 192.96C155.455 192.525 155.101 192.171 154.666 192.171Z" fill="#82CAE0"/>
<path d="M180.885 192.171H163.631C163.196 192.171 162.842 192.525 162.842 192.96C162.842 193.395 163.196 193.749 163.631 193.749H180.885C181.319 193.749 181.673 193.395 181.673 192.96C181.673 192.525 181.319 192.171 180.885 192.171Z" fill="#82CAE0"/>
<path d="M207.891 192.96C207.891 192.525 207.538 192.171 207.103 192.171H189.849C189.414 192.171 189.06 192.525 189.06 192.96C189.06 193.395 189.414 193.749 189.849 193.749H207.103C207.538 193.749 207.891 193.395 207.891 192.96Z" fill="#82CAE0"/>
<path d="M144.583 176.66C145.017 176.66 145.371 176.306 145.371 175.871C145.371 175.436 145.017 175.083 144.583 175.083H127.329C126.894 175.083 126.54 175.436 126.54 175.871C126.54 176.306 126.894 176.66 127.329 176.66H144.583Z" fill="#82CAE0"/>
<path d="M195.395 176.339H212.648C213.083 176.339 213.437 175.985 213.437 175.55C213.437 175.115 213.083 174.762 212.648 174.762H195.395C194.96 174.762 194.606 175.115 194.606 175.55C194.606 175.985 194.96 176.339 195.395 176.339Z" fill="#82CAE0"/>
<path d="M151.851 176.505H187.622C188.057 176.505 188.41 176.151 188.41 175.716C188.41 175.282 188.057 174.928 187.622 174.928H151.851C151.416 174.928 151.062 175.282 151.062 175.716C151.062 176.151 151.416 176.505 151.851 176.505Z" fill="#82CAE0"/>
<path d="M165.925 200.007H148.671C148.236 200.007 147.882 200.361 147.882 200.796C147.882 201.231 148.236 201.585 148.671 201.585H165.925C166.36 201.585 166.714 201.231 166.714 200.796C166.714 200.361 166.36 200.007 165.925 200.007Z" fill="#82CAE0"/>
<path d="M221.649 159.426V212.871C221.649 217.597 217.804 221.442 213.078 221.442H159.633C154.907 221.442 151.062 217.597 151.062 212.871V159.426C151.062 154.7 154.907 150.855 159.633 150.855H213.078C217.804 150.855 221.649 154.7 221.649 159.426Z" fill="#8A8A8A"/>
<path d="M221.649 159.426V212.871C221.649 217.597 217.804 221.442 213.078 221.442H159.633C154.907 221.442 151.062 217.597 151.062 212.871V159.426C151.062 154.7 154.907 150.855 159.633 150.855H213.078C217.804 150.855 221.649 154.7 221.649 159.426ZM209.762 220.434C215.77 220.434 220.641 215.563 220.641 209.555V185.926C220.641 167.114 205.39 151.863 186.578 151.863H159.633C155.456 151.863 152.07 155.249 152.07 159.426V205.414C152.07 213.709 158.795 220.434 167.09 220.434H209.762V220.434H209.762Z" fill="#82CAE0"/>
<path d="M193.47 172.683H176.216C175.781 172.683 175.427 172.329 175.427 171.894C175.427 171.459 175.781 171.105 176.216 171.105H193.47C193.905 171.105 194.259 171.459 194.259 171.894C194.259 172.329 193.905 172.683 193.47 172.683V172.683Z" fill="#82CAE0"/>
<path d="M193.47 189.505H176.216C175.781 189.505 175.427 189.151 175.427 188.716C175.427 188.281 175.781 187.927 176.216 187.927H193.47C193.905 187.927 194.259 188.281 194.259 188.716C194.259 189.151 193.905 189.505 193.47 189.505V189.505Z" fill="#82CAE0"/>
<path d="M184.899 212.698H167.645C167.21 212.698 166.856 212.344 166.856 211.909C166.856 211.474 167.21 211.12 167.645 211.12H184.899C185.334 211.12 185.688 211.474 185.688 211.909C185.688 212.344 185.334 212.698 184.899 212.698V212.698Z" fill="#82CAE0"/>
<path d="M202.728 181.099H166.957C166.523 181.099 166.169 180.745 166.169 180.31C166.169 179.875 166.523 179.521 166.957 179.521H202.728C203.163 179.521 203.517 179.875 203.517 180.31C203.517 180.745 203.163 181.099 202.728 181.099V181.099Z" fill="#82CAE0"/>
<path d="M211.593 129.81C211.593 113.138 197.502 103.966 181.405 99.6224C160.768 94.0531 145.654 105.323 151.218 129.81C152.479 135.36 155.494 141.842 159.227 147.386H188.851C198.746 140.944 211.593 142.751 211.593 129.81H211.593Z" fill="#82CAE0"/>
<path d="M180.962 161.327C182.647 158.114 184.784 155.797 187.138 154.033H159.392C166.533 164.233 176.003 170.78 180.962 161.327Z" fill="#82CAE0"/>
<path d="M177.76 111.963C179.542 111.963 180.986 113.407 180.986 115.188V121.638H174.535V115.188C174.535 113.407 175.979 111.963 177.76 111.963ZM182.598 121.638V115.188C182.598 112.516 180.432 110.35 177.76 110.35C175.089 110.35 172.923 112.516 172.923 115.188V121.638C171.141 121.638 169.697 123.082 169.697 124.864V132.927C169.697 134.708 171.141 136.152 172.923 136.152H182.598C184.38 136.152 185.824 134.708 185.824 132.927V124.864C185.824 123.082 184.38 121.638 182.598 121.638H182.598ZM172.923 123.251H182.598C183.489 123.251 184.211 123.973 184.211 124.864V132.927C184.211 133.817 183.489 134.539 182.598 134.539H172.923C172.032 134.539 171.31 133.817 171.31 132.927V124.864C171.31 123.973 172.032 123.251 172.923 123.251Z" fill="white"/>
<path d="M131.67 149.515C131.281 152.762 132.641 155.595 134.708 155.842C136.774 156.09 138.764 153.658 139.153 150.411C139.323 148.99 139.158 147.648 138.746 146.567L140.221 132.788L133.74 132.233L132.974 145.876C132.318 146.829 131.841 148.094 131.67 149.515Z" fill="#FFB6B6"/>
<path d="M133.225 67.3099C133.225 67.3099 140.284 65.2931 141.797 68.3183C143.309 71.3435 146.839 111.175 146.839 111.175L140.032 142.969L132.217 140.922L136.25 108.654L130.704 84.4525L133.225 67.3099Z" fill="#E6E6E6"/>
<path d="M29.4955 164.035C45.7853 164.035 58.9908 150.83 58.9908 134.54C58.9908 118.25 45.7853 105.044 29.4955 105.044C13.2057 105.044 0.000183105 118.25 0.000183105 134.54C0.000183105 150.83 13.2057 164.035 29.4955 164.035Z" fill="#82CAE0"/>
<path d="M29.4952 121.336C31.5788 121.336 33.2679 123.025 33.2679 125.109V132.654H25.7226V125.109C25.7226 123.025 27.4117 121.336 29.4952 121.336ZM35.1542 132.654V125.109C35.1542 121.983 32.6206 119.45 29.4952 119.45C26.3699 119.45 23.8363 121.983 23.8363 125.109V132.654C21.7527 132.654 20.0636 134.343 20.0636 136.427V145.858C20.0636 147.942 21.7527 149.631 23.8363 149.631H35.1542C37.2378 149.631 38.9269 147.942 38.9269 145.858V136.427C38.9269 134.343 37.2378 132.654 35.1542 132.654H35.1542ZM23.8363 134.54H35.1542C36.196 134.54 37.0406 135.385 37.0406 136.427V145.858C37.0406 146.9 36.196 147.745 35.1542 147.745H23.8363C22.7945 147.745 21.9499 146.9 21.9499 145.858V136.427C21.9499 135.385 22.7945 134.54 23.8363 134.54Z" fill="white"/>
</g>
<defs>
<clipPath id="clip0_9_11283">
<rect width="284.861" height="258.296" fill="white"/>
</clipPath>
</defs>
</svg>
