<svg width="48" height="48" viewBox="0 0 48 48" fill="none" xmlns="http://www.w3.org/2000/svg">
<rect y="0.111084" width="47.7778" height="47.7778" rx="23.8889" fill="#C8D7F7" fill-opacity="0.28"/>
<path d="M16.7222 16.8334C15.4029 16.8334 14.3333 17.9029 14.3333 19.2223V20.4167H33.4445V19.2223C33.4445 17.9029 32.3749 16.8334 31.0556 16.8334H16.7222Z" fill="#96B8FE"/>
<path fill-rule="evenodd" clip-rule="evenodd" d="M33.4445 22.8056H14.3333V28.7778C14.3333 30.0972 15.4029 31.1667 16.7222 31.1667H31.0556C32.3749 31.1667 33.4445 30.0972 33.4445 28.7778V22.8056ZM16.7222 27.5834C16.7222 26.9237 17.257 26.3889 17.9167 26.3889H19.1111C19.7708 26.3889 20.3056 26.9237 20.3056 27.5834C20.3056 28.243 19.7708 28.7778 19.1111 28.7778H17.9167C17.257 28.7778 16.7222 28.243 16.7222 27.5834ZM22.6945 26.3889C22.0348 26.3889 21.5 26.9237 21.5 27.5834C21.5 28.243 22.0348 28.7778 22.6945 28.7778H23.8889C24.5486 28.7778 25.0833 28.243 25.0833 27.5834C25.0833 26.9237 24.5486 26.3889 23.8889 26.3889H22.6945Z" fill="#96B8FE"/>
</svg>
