<svg width="428" height="926" viewBox="0 0 428 926" fill="none" xmlns="http://www.w3.org/2000/svg">
<path d="M214 307.4C188.485 307.4 167.8 328.084 167.8 353.6V381.211L162.356 386.655C160.153 388.857 159.495 392.169 160.686 395.047C161.878 397.924 164.686 399.8 167.8 399.8H260.2C263.315 399.8 266.122 397.924 267.314 395.047C268.506 392.169 267.847 388.857 265.645 386.655L260.2 381.211V353.6C260.2 328.084 239.516 307.4 214 307.4Z" fill="#82CAE0"/>
<path d="M214 430.6C201.242 430.6 190.9 420.258 190.9 407.5H237.1C237.1 420.258 226.758 430.6 214 430.6Z" fill="#82CAE0"/>
<path opacity="0.7" d="M84 236C97.2548 236 108 225.255 108 212C108 198.745 97.2548 188 84 188C70.7452 188 60 198.745 60 212C60 225.255 70.7452 236 84 236Z" fill="#FF8E8E"/>
<path opacity="0.7" d="M348 712C361.255 712 372 701.255 372 688C372 674.745 361.255 664 348 664C334.745 664 324 674.745 324 688C324 701.255 334.745 712 348 712Z" fill="#3562DA"/>
<path d="M339 322C347.284 322 354 315.284 354 307C354 298.716 347.284 292 339 292C330.716 292 324 298.716 324 307C324 315.284 330.716 322 339 322Z" fill="#D9D9D9"/>
<path opacity="0.7" d="M339 322C347.284 322 354 315.284 354 307C354 298.716 347.284 292 339 292C330.716 292 324 298.716 324 307C324 315.284 330.716 322 339 322Z" fill="#895FE1"/>
<path opacity="0.7" d="M114 639C122.284 639 129 632.284 129 624C129 615.716 122.284 609 114 609C105.716 609 99 615.716 99 624C99 632.284 105.716 639 114 639Z" fill="#82AAFF"/>
<path opacity="0.7" d="M99 413C104.523 413 109 408.523 109 403C109 397.477 104.523 393 99 393C93.4772 393 89 397.477 89 403C89 408.523 93.4772 413 99 413Z" fill="#EA3E3E"/>
<path opacity="0.7" d="M349 491C354.523 491 359 486.523 359 481C359 475.477 354.523 471 349 471C343.477 471 339 475.477 339 481C339 486.523 343.477 491 349 491Z" fill="#1D4A41"/>
<path opacity="0.7" d="M249 167C254.523 167 259 162.523 259 157C259 151.477 254.523 147 249 147C243.477 147 239 151.477 239 157C239 162.523 243.477 167 249 167Z" fill="#F99015"/>
<path opacity="0.7" d="M170 779C175.523 779 180 774.523 180 769C180 763.477 175.523 759 170 759C164.477 759 160 763.477 160 769C160 774.523 164.477 779 170 779Z" fill="#BACA00"/>
<path d="M214 307.4C188.485 307.4 167.8 328.084 167.8 353.6V381.211L162.356 386.655C160.153 388.857 159.495 392.169 160.686 395.047C161.878 397.924 164.686 399.8 167.8 399.8H260.2C263.315 399.8 266.122 397.924 267.314 395.047C268.506 392.169 267.847 388.857 265.645 386.655L260.2 381.211V353.6C260.2 328.084 239.516 307.4 214 307.4Z" fill="#82CAE0"/>
<path d="M214 430.6C201.242 430.6 190.9 420.258 190.9 407.5H237.1C237.1 420.258 226.758 430.6 214 430.6Z" fill="#82CAE0"/>
<path opacity="0.7" d="M84 236C97.2548 236 108 225.255 108 212C108 198.745 97.2548 188 84 188C70.7452 188 60 198.745 60 212C60 225.255 70.7452 236 84 236Z" fill="#FF8E8E"/>
<path opacity="0.7" d="M348 712C361.255 712 372 701.255 372 688C372 674.745 361.255 664 348 664C334.745 664 324 674.745 324 688C324 701.255 334.745 712 348 712Z" fill="#3562DA"/>
<path d="M339 322C347.284 322 354 315.284 354 307C354 298.716 347.284 292 339 292C330.716 292 324 298.716 324 307C324 315.284 330.716 322 339 322Z" fill="#D9D9D9"/>
<path opacity="0.7" d="M339 322C347.284 322 354 315.284 354 307C354 298.716 347.284 292 339 292C330.716 292 324 298.716 324 307C324 315.284 330.716 322 339 322Z" fill="#895FE1"/>
<path opacity="0.7" d="M114 639C122.284 639 129 632.284 129 624C129 615.716 122.284 609 114 609C105.716 609 99 615.716 99 624C99 632.284 105.716 639 114 639Z" fill="#82AAFF"/>
<path opacity="0.7" d="M99 413C104.523 413 109 408.523 109 403C109 397.477 104.523 393 99 393C93.4772 393 89 397.477 89 403C89 408.523 93.4772 413 99 413Z" fill="#EA3E3E"/>
<path opacity="0.7" d="M349 491C354.523 491 359 486.523 359 481C359 475.477 354.523 471 349 471C343.477 471 339 475.477 339 481C339 486.523 343.477 491 349 491Z" fill="#1D4A41"/>
<path opacity="0.7" d="M249 167C254.523 167 259 162.523 259 157C259 151.477 254.523 147 249 147C243.477 147 239 151.477 239 157C239 162.523 243.477 167 249 167Z" fill="#F99015"/>
<path opacity="0.7" d="M170 779C175.523 779 180 774.523 180 769C180 763.477 175.523 759 170 759C164.477 759 160 763.477 160 769C160 774.523 164.477 779 170 779Z" fill="#BACA00"/>
</svg>
