<svg width="16" height="16" viewBox="0 0 16 16" fill="none" xmlns="http://www.w3.org/2000/svg">
<path d="M14.2502 3.39286C14.4169 3.55952 14.5597 3.78571 14.6788 4.07143C14.7978 4.35714 14.8574 4.61905 14.8574 4.85714V15.1429C14.8574 15.381 14.774 15.5833 14.6074 15.75C14.4407 15.9167 14.2383 16 14.0002 16H2.00021C1.76211 16 1.55973 15.9167 1.39307 15.75C1.2264 15.5833 1.14307 15.381 1.14307 15.1429V0.857143C1.14307 0.619048 1.2264 0.416667 1.39307 0.25C1.55973 0.0833333 1.76211 0 2.00021 0H10.0002C10.2383 0 10.5002 0.0595238 10.7859 0.178571C11.0716 0.297619 11.2978 0.440476 11.4645 0.607143L14.2502 3.39286ZM10.2859 1.21429V4.57143H13.6431C13.5835 4.39881 13.5181 4.27679 13.4466 4.20536L10.652 1.41071C10.5806 1.33929 10.4585 1.27381 10.2859 1.21429ZM13.7145 14.8571V5.71429H10.0002C9.76211 5.71429 9.55973 5.63095 9.39307 5.46429C9.2264 5.29762 9.14307 5.09524 9.14307 4.85714V1.14286H2.28592V14.8571H13.7145ZM4.57164 7.14286C4.57164 7.05952 4.59842 6.99107 4.65199 6.9375C4.70557 6.88393 4.77402 6.85714 4.85735 6.85714H11.1431C11.2264 6.85714 11.2949 6.88393 11.3484 6.9375C11.402 6.99107 11.4288 7.05952 11.4288 7.14286V7.71429C11.4288 7.79762 11.402 7.86607 11.3484 7.91964C11.2949 7.97321 11.2264 8 11.1431 8H4.85735C4.77402 8 4.70557 7.97321 4.65199 7.91964C4.59842 7.86607 4.57164 7.79762 4.57164 7.71429V7.14286ZM11.1431 9.14286C11.2264 9.14286 11.2949 9.16964 11.3484 9.22322C11.402 9.27679 11.4288 9.34524 11.4288 9.42857V10C11.4288 10.0833 11.402 10.1518 11.3484 10.2054C11.2949 10.2589 11.2264 10.2857 11.1431 10.2857H4.85735C4.77402 10.2857 4.70557 10.2589 4.65199 10.2054C4.59842 10.1518 4.57164 10.0833 4.57164 10V9.42857C4.57164 9.34524 4.59842 9.27679 4.65199 9.22322C4.70557 9.16964 4.77402 9.14286 4.85735 9.14286H11.1431ZM11.1431 11.4286C11.2264 11.4286 11.2949 11.4554 11.3484 11.5089C11.402 11.5625 11.4288 11.631 11.4288 11.7143V12.2857C11.4288 12.369 11.402 12.4375 11.3484 12.4911C11.2949 12.5446 11.2264 12.5714 11.1431 12.5714H4.85735C4.77402 12.5714 4.70557 12.5446 4.65199 12.4911C4.59842 12.4375 4.57164 12.369 4.57164 12.2857V11.7143C4.57164 11.631 4.59842 11.5625 4.65199 11.5089C4.70557 11.4554 4.77402 11.4286 4.85735 11.4286H11.1431Z" fill="#939FBE"/>
</svg>
