<svg width="24" height="25" viewBox="0 0 24 25" fill="none" xmlns="http://www.w3.org/2000/svg">
<g clip-path="url(#clip0_251_2985)">
<path d="M21.3751 5.58929C21.6251 5.83929 21.8394 6.17857 22.0179 6.60714C22.1965 7.03571 22.2858 7.42857 22.2858 7.78571V23.2143C22.2858 23.5714 22.1608 23.875 21.9108 24.125C21.6608 24.375 21.3572 24.5 21.0001 24.5H3.00007C2.64293 24.5 2.33936 24.375 2.08936 24.125C1.83936 23.875 1.71436 23.5714 1.71436 23.2143V1.78571C1.71436 1.42857 1.83936 1.125 2.08936 0.875C2.33936 0.625 2.64293 0.5 3.00007 0.5H15.0001C15.3572 0.5 15.7501 0.589286 16.1786 0.767857C16.6072 0.946429 16.9465 1.16071 17.1965 1.41071L21.3751 5.58929ZM15.4286 2.32143V7.35714H20.4644C20.3751 7.09821 20.2769 6.91518 20.1697 6.80804L15.9777 2.61607C15.8706 2.50893 15.6876 2.41071 15.4286 2.32143ZM20.5715 22.7857V9.07143H15.0001C14.6429 9.07143 14.3394 8.94643 14.0894 8.69643C13.8394 8.44643 13.7144 8.14286 13.7144 7.78571V2.21429H3.42864V22.7857H20.5715ZM6.85721 11.2143C6.85721 11.0893 6.89739 10.9866 6.97775 10.9062C7.05811 10.8259 7.16078 10.7857 7.28578 10.7857H16.7144C16.8394 10.7857 16.942 10.8259 17.0224 10.9062C17.1027 10.9866 17.1429 11.0893 17.1429 11.2143V12.0714C17.1429 12.1964 17.1027 12.2991 17.0224 12.3795C16.942 12.4598 16.8394 12.5 16.7144 12.5H7.28578C7.16078 12.5 7.05811 12.4598 6.97775 12.3795C6.89739 12.2991 6.85721 12.1964 6.85721 12.0714V11.2143ZM16.7144 14.2143C16.8394 14.2143 16.942 14.2545 17.0224 14.3348C17.1027 14.4152 17.1429 14.5179 17.1429 14.6429V15.5C17.1429 15.625 17.1027 15.7277 17.0224 15.808C16.942 15.8884 16.8394 15.9286 16.7144 15.9286H7.28578C7.16078 15.9286 7.05811 15.8884 6.97775 15.808C6.89739 15.7277 6.85721 15.625 6.85721 15.5V14.6429C6.85721 14.5179 6.89739 14.4152 6.97775 14.3348C7.05811 14.2545 7.16078 14.2143 7.28578 14.2143H16.7144ZM16.7144 17.6429C16.8394 17.6429 16.942 17.683 17.0224 17.7634C17.1027 17.8438 17.1429 17.9464 17.1429 18.0714V18.9286C17.1429 19.0536 17.1027 19.1562 17.0224 19.2366C16.942 19.317 16.8394 19.3571 16.7144 19.3571H7.28578C7.16078 19.3571 7.05811 19.317 6.97775 19.2366C6.89739 19.1562 6.85721 19.0536 6.85721 18.9286V18.0714C6.85721 17.9464 6.89739 17.8438 6.97775 17.7634C7.05811 17.683 7.16078 17.6429 7.28578 17.6429H16.7144Z" fill="#0A256C"/>
</g>
<defs>
<clipPath id="clip0_251_2985">
<rect width="24" height="24" fill="white" transform="translate(0 0.5)"/>
</clipPath>
</defs>
</svg>
