<svg width="14" height="19" viewBox="0 0 14 19" fill="none" xmlns="http://www.w3.org/2000/svg">
<path d="M13 11C12.4 11 12 11.4 12 12V13C12 13.6 11.6 14 11 14H10V5.4C10 4.1 9.2 3 8.1 2.6L6.5 2H11C11.6 2 12 2.4 12 3V4C12 4.6 12.4 5 13 5C13.6 5 14 4.6 14 4V3C14 1.3 12.7 0 11 0H1C0.9 0 0.8 -9.68575e-08 0.7 0.0999999C0.6 0.0999999 0.5 0.2 0.5 0.2L0.4 0.3C0.3 0.3 0.2 0.4 0.2 0.5V0.6C0.0999998 0.6 0 0.7 0 0.8V15C0 15.4 0.3 15.8 0.6 15.9L7.2 18.4C7.4 18.5 7.7 18.5 7.9 18.5C8.3 18.5 8.7 18.4 9 18.1C9.5 17.7 9.9 17.1 9.9 16.5V16H10.9C12.6 16 13.9 14.7 13.9 13V12C14 11.5 13.6 11 13 11ZM2 14.3V2.4L7.3 4.4C7.7 4.6 8 5 8 5.4V16.5L2 14.3Z" fill="black"/>
</svg>
