<svg width="16" height="18" viewBox="0 0 16 18" fill="none" xmlns="http://www.w3.org/2000/svg">
<path fill-rule="evenodd" clip-rule="evenodd" d="M12.6023 5.16318V6.44096C14.0376 6.88897 15.0834 8.18828 15.0834 9.74017V13.8543C15.0834 15.7755 13.4906 17.3332 11.5269 17.3332H4.47402C2.50948 17.3332 0.916687 15.7755 0.916687 13.8543V9.74017C0.916687 8.18828 1.96331 6.88897 3.39776 6.44096V5.16318C3.40623 2.67883 5.46391 0.666504 7.98732 0.666504C10.5446 0.666504 12.6023 2.67883 12.6023 5.16318ZM8.00425 2.11571C9.72322 2.11571 11.1204 3.4821 11.1204 5.16318V6.26126H4.87963V5.14661C4.8881 3.47382 6.28529 2.11571 8.00425 2.11571ZM8.74095 12.7123C8.74095 13.1181 8.41071 13.441 7.99579 13.441C7.58933 13.441 7.25909 13.1181 7.25909 12.7123V10.8739C7.25909 10.4764 7.58933 10.1534 7.99579 10.1534C8.41071 10.1534 8.74095 10.4764 8.74095 10.8739V12.7123Z" fill="#939FBE"/>
</svg>
