<svg width="25" height="25" viewBox="0 0 25 25" fill="none" xmlns="http://www.w3.org/2000/svg">
<path d="M12.5 23.6978C6.32292 23.6978 1.30208 18.677 1.30208 12.4999C1.30208 10.0416 2.08333 7.70825 3.5625 5.74992C3.82292 5.40617 4.3125 5.34367 4.65625 5.60409C5 5.8645 5.07292 6.35408 4.8125 6.69783C3.54167 8.37492 2.86458 10.3853 2.86458 12.4999C2.86458 17.8124 7.1875 22.1353 12.5 22.1353C17.8125 22.1353 22.1354 17.8124 22.1354 12.4999C22.1354 7.18742 17.8125 2.8645 12.5 2.8645C12.0729 2.8645 11.7187 2.51034 11.7187 2.08325C11.7187 1.65617 12.0729 1.302 12.5 1.302C18.6771 1.302 23.6979 6.32284 23.6979 12.4999C23.6979 18.677 18.6771 23.6978 12.5 23.6978Z" fill="#0A256C"/>
<path d="M12.5 20.5728C8.05208 20.5728 4.42708 16.9478 4.42708 12.4999C4.42708 12.0728 4.78125 11.7187 5.20833 11.7187C5.63542 11.7187 5.98958 12.0728 5.98958 12.4999C5.98958 16.0937 8.90625 19.0103 12.5 19.0103C16.0938 19.0103 19.0104 16.0937 19.0104 12.4999C19.0104 8.90617 16.0938 5.9895 12.5 5.9895C12.0729 5.9895 11.7188 5.63534 11.7188 5.20825C11.7188 4.78117 12.0729 4.427 12.5 4.427C16.9479 4.427 20.5729 8.052 20.5729 12.4999C20.5729 16.9478 16.9479 20.5728 12.5 20.5728Z" fill="#0A256C"/>
<path d="M12.5 17.4478C12.0729 17.4478 11.7188 17.0937 11.7188 16.6666C11.7188 16.2395 12.0729 15.8853 12.5 15.8853C14.3646 15.8853 15.8854 14.3645 15.8854 12.4999C15.8854 10.6353 14.3646 9.1145 12.5 9.1145C12.0729 9.1145 11.7188 8.76034 11.7188 8.33325C11.7188 7.90617 12.0729 7.552 12.5 7.552C15.2292 7.552 17.4479 9.77075 17.4479 12.4999C17.4479 15.2291 15.2292 17.4478 12.5 17.4478Z" fill="#0A256C"/>
</svg>
