<svg width="25" height="25" viewBox="0 0 25 25" fill="none" xmlns="http://www.w3.org/2000/svg">
<path d="M13.4583 2.35425L20.2396 6.0105C21.0312 6.43758 21.0312 7.65633 20.2396 8.08342L13.4583 11.7397C12.8542 12.0626 12.1458 12.0626 11.5417 11.7397L4.76041 8.08342C3.96875 7.65633 3.96875 6.43758 4.76041 6.0105L11.5417 2.35425C12.1458 2.03133 12.8542 2.03133 13.4583 2.35425Z" stroke="#0A256C" stroke-width="1.5" stroke-linecap="round" stroke-linejoin="round"/>
<path d="M3.76042 10.5522L10.0625 13.7084C10.8438 14.1042 11.3438 14.9063 11.3438 15.7813V21.7397C11.3438 22.6042 10.4375 23.1563 9.66667 22.7709L3.36459 19.6147C2.58334 19.2188 2.08334 18.4167 2.08334 17.5417V11.5834C2.08334 10.7188 2.98959 10.1667 3.76042 10.5522Z" stroke="#0A256C" stroke-width="1.5" stroke-linecap="round" stroke-linejoin="round"/>
<path d="M21.2396 10.5522L14.9375 13.7084C14.1563 14.1042 13.6562 14.9063 13.6562 15.7813V21.7397C13.6562 22.6042 14.5625 23.1563 15.3333 22.7709L21.6354 19.6147C22.4167 19.2188 22.9167 18.4167 22.9167 17.5417V11.5834C22.9167 10.7188 22.0104 10.1667 21.2396 10.5522Z" stroke="#0A256C" stroke-width="1.5" stroke-linecap="round" stroke-linejoin="round"/>
</svg>
