<svg width="20" height="20" viewBox="0 0 20 20" fill="none" xmlns="http://www.w3.org/2000/svg">
<path d="M3.70632 1.47407C4.20619 1.23216 4.79541 1.10442 5.63112 1.03957C6.47091 0.974395 7.53336 0.97417 8.97436 0.97417H11.0256C12.4666 0.97417 13.5291 0.974395 14.3689 1.03957C15.2046 1.10442 15.7938 1.23216 16.2937 1.47407C17.2033 1.9143 17.9476 2.61909 18.4157 3.4916C18.6748 3.97472 18.8108 4.54344 18.8795 5.34258C18.9484 6.14388 18.9486 7.15652 18.9486 8.52399V11.1531C18.9486 11.4277 18.9486 11.5578 18.9431 11.6665C18.8233 14.0702 16.8061 15.9574 14.3306 16.0687C14.2186 16.0737 14.0678 16.0738 13.7446 16.0738L3.70632 1.47407ZM3.70632 1.47407C2.79667 1.9143 2.05239 2.61909 1.58434 3.4916C1.32517 3.97472 1.18922 4.54344 1.12048 5.34258C1.05155 6.14388 1.05138 7.15652 1.05138 8.52399V12.6431C1.05138 14.5612 2.68092 16.0738 4.6376 16.0738H5.25478C6.28906 16.0738 6.91753 17.0428 6.5688 17.8709C6.40152 18.2681 6.57241 18.6482 6.83859 18.8467C7.10155 19.0427 7.49774 19.0974 7.83505 18.8685L10.5121 17.0523L10.5127 17.0519L10.5686 17.0141C10.5689 17.0139 10.5691 17.0138 10.5694 17.0136C11.4719 16.4098 12.5498 16.0809 13.6586 16.0739C13.659 16.0739 13.6595 16.0739 13.6599 16.0739L13.744 16.0738L3.70632 1.47407ZM13.744 16.5609H13.7434L13.6662 16.561L13.6638 16.561C12.6806 16.567 11.7207 16.8584 10.9129 17.399L10.911 17.4004L10.8606 17.4344L10.86 17.4348L8.18234 19.2515C7.60172 19.6454 6.93583 19.5617 6.47093 19.2151C6.00925 18.8709 5.78651 18.3039 6.03818 17.7063C6.28299 17.125 5.81866 16.5609 5.25478 16.5609H4.6376C2.3214 16.5609 0.487085 14.7835 0.487085 12.6431L0.487085 8.4913C0.48708 7.14697 0.487488 6.12348 0.557715 5.30707C0.628696 4.48191 0.772188 3.84762 1.07201 3.28872C1.58727 2.32821 2.41202 1.5427 3.43224 1.04896C4.02943 0.759951 4.70677 0.622272 5.58121 0.554413C6.44459 0.487412 7.52579 0.487081 8.93994 0.487085H11.0601C12.4742 0.487081 13.5554 0.487412 14.4188 0.554413C15.2932 0.622272 15.9706 0.759951 16.5678 1.04896C17.588 1.5427 18.4127 2.32821 18.928 3.28872L19.3572 3.05846L18.928 3.28872C19.2278 3.84762 19.3713 4.48191 19.4423 5.30707C19.5125 6.12348 19.5129 7.14696 19.5129 8.49128V11.1768C19.5129 11.4316 19.5128 11.5695 19.5069 11.6871C19.3766 14.3015 17.1672 16.4289 14.3596 16.5551C14.2336 16.5608 14.0707 16.5609 13.7732 16.5609H13.744ZM6.43599 8.52399C6.43599 8.76967 6.21881 9.01107 5.89744 9.01107C5.57607 9.01107 5.35888 8.76967 5.35888 8.52399C5.35888 8.27831 5.57606 8.0369 5.89744 8.0369C6.21881 8.0369 6.43599 8.27831 6.43599 8.52399ZM10.5386 8.52399C10.5386 8.76967 10.3214 9.01107 10 9.01107C9.67863 9.01107 9.46144 8.76967 9.46144 8.52399C9.46144 8.27831 9.67863 8.0369 10 8.0369C10.3214 8.0369 10.5386 8.27831 10.5386 8.52399ZM14.6411 8.52399C14.6411 8.76967 14.4239 9.01107 14.1026 9.01107C13.7812 9.01107 13.564 8.76967 13.564 8.52399C13.564 8.27831 13.7812 8.0369 14.1026 8.0369C14.4239 8.0369 14.6411 8.27831 14.6411 8.52399Z" fill="#212121" stroke="#212121" stroke-width="0.97417"/>
</svg>
