<svg width="52" height="52" viewBox="0 0 52 52" fill="none" xmlns="http://www.w3.org/2000/svg">
<rect width="52" height="52" rx="26" fill="#0A256C"/>
<path d="M19.7063 17.4741C20.2062 17.2322 20.7954 17.1044 21.6311 17.0396C22.4709 16.9744 23.5334 16.9742 24.9744 16.9742H27.0256C28.4666 16.9742 29.5291 16.9744 30.3689 17.0396C31.2046 17.1044 31.7938 17.2322 32.2937 17.4741C33.2033 17.9143 33.9476 18.6191 34.4157 19.4916C34.6748 19.9747 34.8108 20.5434 34.8795 21.3426C34.9484 22.1439 34.9486 23.1565 34.9486 24.524V27.1531C34.9486 27.4277 34.9486 27.5578 34.9431 27.6665C34.8233 30.0702 32.8061 31.9574 30.3306 32.0687C30.2186 32.0737 30.0678 32.0738 29.7446 32.0738L19.7063 17.4741ZM19.7063 17.4741C18.7967 17.9143 18.0524 18.6191 17.5843 19.4916C17.3252 19.9747 17.1892 20.5434 17.1205 21.3426C17.0516 22.1439 17.0514 23.1565 17.0514 24.524V28.6431C17.0514 30.5612 18.6809 32.0738 20.6376 32.0738H21.2548C22.2891 32.0738 22.9175 33.0428 22.5688 33.8709C22.4015 34.2681 22.5724 34.6482 22.8386 34.8467C23.1016 35.0427 23.4977 35.0974 23.8351 34.8685L26.5121 33.0523L26.5127 33.0519L26.5686 33.0141C26.5689 33.0139 26.5691 33.0138 26.5694 33.0136C27.4719 32.4098 28.5498 32.0809 29.6586 32.0739C29.659 32.0739 29.6595 32.0739 29.6599 32.0739L29.744 32.0738L19.7063 17.4741ZM29.744 32.5609H29.7434L29.6662 32.561L29.6638 32.561C28.6806 32.567 27.7207 32.8584 26.9129 33.399L26.911 33.4004L26.8606 33.4344L26.86 33.4348L24.1823 35.2515C23.6017 35.6454 22.9358 35.5617 22.4709 35.2151C22.0093 34.8709 21.7865 34.3039 22.0382 33.7063C22.283 33.125 21.8187 32.5609 21.2548 32.5609H20.6376C18.3214 32.5609 16.4871 30.7835 16.4871 28.6431L16.4871 24.4913C16.4871 23.147 16.4875 22.1235 16.5577 21.3071C16.6287 20.4819 16.7722 19.8476 17.072 19.2887C17.5873 18.3282 18.412 17.5427 19.4322 17.049C20.0294 16.76 20.7068 16.6223 21.5812 16.5544C22.4446 16.4874 23.5258 16.4871 24.9399 16.4871H27.0601C28.4742 16.4871 29.5554 16.4874 30.4188 16.5544C31.2932 16.6223 31.9706 16.76 32.5678 17.049C33.588 17.5427 34.4127 18.3282 34.928 19.2887L35.3572 19.0585L34.928 19.2887C35.2278 19.8476 35.3713 20.4819 35.4423 21.3071C35.5125 22.1235 35.5129 23.147 35.5129 24.4913V27.1768C35.5129 27.4316 35.5128 27.5695 35.5069 27.6871C35.3766 30.3015 33.1672 32.4289 30.3596 32.5551C30.2336 32.5608 30.0707 32.5609 29.7732 32.5609H29.744ZM22.436 24.524C22.436 24.7697 22.2188 25.0111 21.8974 25.0111C21.5761 25.0111 21.3589 24.7697 21.3589 24.524C21.3589 24.2783 21.5761 24.0369 21.8974 24.0369C22.2188 24.0369 22.436 24.2783 22.436 24.524ZM26.5386 24.524C26.5386 24.7697 26.3214 25.0111 26 25.0111C25.6786 25.0111 25.4614 24.7697 25.4614 24.524C25.4614 24.2783 25.6786 24.0369 26 24.0369C26.3214 24.0369 26.5386 24.2783 26.5386 24.524ZM30.6411 24.524C30.6411 24.7697 30.4239 25.0111 30.1026 25.0111C29.7812 25.0111 29.564 24.7697 29.564 24.524C29.564 24.2783 29.7812 24.0369 30.1026 24.0369C30.4239 24.0369 30.6411 24.2783 30.6411 24.524Z" fill="white" stroke="white" stroke-width="0.97417"/>
</svg>
