<svg width="24" height="24" viewBox="0 0 24 24" fill="none" xmlns="http://www.w3.org/2000/svg">
<g clip-path="url(#clip0_9_11770)">
<path d="M19.7939 0H4.20611C3.09103 0.0014675 2.02204 0.445082 1.23356 1.23356C0.445082 2.02204 0.0014675 3.09103 0 4.20611L0 19.7939C0.0014675 20.909 0.445082 21.978 1.23356 22.7664C2.02204 23.5549 3.09103 23.9985 4.20611 24H19.7939C20.909 23.9985 21.978 23.5549 22.7664 22.7664C23.5549 21.978 23.9985 20.909 24 19.7939V4.20611C23.9985 3.09103 23.5549 2.02204 22.7664 1.23356C21.978 0.445082 20.909 0.0014675 19.7939 0ZM21.5593 19.7939C21.5595 20.0258 21.514 20.2555 21.4254 20.4697C21.3367 20.684 21.2067 20.8787 21.0427 21.0427C20.8787 21.2067 20.684 21.3367 20.4697 21.4254C20.2555 21.514 20.0258 21.5595 19.7939 21.5593H4.20611C3.97421 21.5595 3.74455 21.514 3.53026 21.4254C3.31597 21.3367 3.12126 21.2067 2.95729 21.0427C2.79331 20.8787 2.66327 20.684 2.57463 20.4697C2.48598 20.2555 2.44046 20.0258 2.44067 19.7939V4.20611C2.44046 3.97421 2.48598 3.74455 2.57463 3.53026C2.66327 3.31597 2.79331 3.12126 2.95729 2.95729C3.12126 2.79331 3.31597 2.66327 3.53026 2.57463C3.74455 2.48598 3.97421 2.44046 4.20611 2.44067H19.7939C20.0258 2.44046 20.2555 2.48598 20.4697 2.57463C20.684 2.66327 20.8787 2.79331 21.0427 2.95729C21.2067 3.12126 21.3367 3.31597 21.4254 3.53026C21.514 3.74455 21.5595 3.97421 21.5593 4.20611V19.7939Z" fill="#0A256C"/>
<path d="M13.2202 5.80762H10.7798V13.7691H13.2202V5.80762Z" fill="#0A256C"/>
<path d="M13.2202 15.752H10.7798V18.1923H13.2202V15.752Z" fill="#0A256C"/>
</g>
<defs>
<clipPath id="clip0_9_11770">
<rect width="24" height="24" fill="white"/>
</clipPath>
</defs>
</svg>
