<svg width="20" height="20" viewBox="0 0 20 20" fill="none" xmlns="http://www.w3.org/2000/svg">
<path d="M13.3332 5.83333C13.3332 4 11.8332 2.5 9.99984 2.5C8.1665 2.5 6.6665 4 6.6665 5.83333C6.6665 7.66667 8.1665 9.16667 9.99984 9.16667C11.8332 9.16667 13.3332 7.66667 13.3332 5.83333ZM8.33317 5.83333C8.33317 4.91667 9.08317 4.16667 9.99984 4.16667C10.9165 4.16667 11.6665 4.91667 11.6665 5.83333C11.6665 6.75 10.9165 7.5 9.99984 7.5C9.08317 7.5 8.33317 6.75 8.33317 5.83333ZM9.1665 13.3333H8.33317C7.83317 13.3333 7.49984 13.6667 7.49984 14.1667C7.49984 14.6667 7.83317 15 8.33317 15H9.1665C9.6665 15 9.99984 14.6667 9.99984 14.1667C9.99984 13.6667 9.6665 13.3333 9.1665 13.3333Z" fill="#939FBE"/>
<path d="M4.49981 14.8333L4.16648 16.5C4.08315 16.75 4.16648 17 4.33315 17.1667C4.49981 17.4167 4.74981 17.5 4.99981 17.5H14.9998C15.2498 17.5 15.4998 17.4167 15.6665 17.1667C15.8331 17 15.9165 16.75 15.8331 16.5L15.4998 14.8333C15.1665 12.0833 12.8331 10 9.99981 10C7.16648 10 4.83315 12.0833 4.49981 14.8333ZM6.16648 15.0833C6.41648 13.1667 8.08315 11.6667 9.99981 11.6667C11.9165 11.6667 13.5831 13.1667 13.8331 15.0833L13.9998 15.8333H5.99981L6.16648 15.0833Z" fill="#939FBE"/>
</svg>
