<svg width="48" height="48" viewBox="0 0 48 48" fill="none" xmlns="http://www.w3.org/2000/svg">
<rect y="0.111084" width="47.7778" height="47.7778" rx="23.8889" fill="#F8BB75" fill-opacity="0.28"/>
<path d="M17.419 16.0371H31.1409C31.2466 16.0371 31.2994 16.0371 31.3436 16.0437C31.6028 16.0828 31.8061 16.2862 31.8452 16.5453C31.8519 16.5895 31.8519 16.6424 31.8519 16.7481C31.8519 17.3821 31.8519 17.6991 31.8118 17.9647C31.5775 19.5193 30.3572 20.7396 28.8026 20.9739C28.5371 21.0139 28.22 21.0139 27.586 21.0139H30.4583C31.5845 21.0139 32.1475 21.0139 32.4974 21.3638C32.8472 21.7136 32.8472 22.2767 32.8472 23.4028V24.9954V28.9769V30.5695C32.8472 31.6956 32.8472 32.2587 32.4974 32.6085C32.1475 32.9584 31.5845 32.9584 30.4583 32.9584H19.7083C17.4561 32.9584 16.3299 32.9584 15.6303 32.2587C14.9306 31.559 14.9306 30.4329 14.9306 28.1806V18.5255C14.9306 17.1512 16.0447 16.0371 17.419 16.0371Z" fill="#F8B261"/>
<path d="M14.9306 18.5255V18.5255C14.9306 17.1512 16.0447 16.0371 17.419 16.0371H31.1409C31.2466 16.0371 31.2994 16.0371 31.3436 16.0437C31.6028 16.0828 31.8061 16.2862 31.8452 16.5453C31.8519 16.5895 31.8519 16.6424 31.8519 16.7481V16.7481C31.8519 17.3821 31.8519 17.6991 31.8118 17.9647C31.5775 19.5193 30.3572 20.7396 28.8026 20.9739C28.5371 21.0139 28.22 21.0139 27.586 21.0139H26.875M14.9306 18.5255V18.5255C14.9306 19.8998 16.0447 21.0139 17.419 21.0139H30.4583C31.5845 21.0139 32.1475 21.0139 32.4974 21.3638C32.8472 21.7136 32.8472 22.2767 32.8472 23.4028L32.8472 24.9954M14.9306 18.5255V28.1806C14.9306 30.4329 14.9306 31.559 15.6303 32.2587C16.3299 32.9584 17.4561 32.9584 19.7083 32.9584L30.4583 32.9584C31.5845 32.9584 32.1475 32.9584 32.4974 32.6085C32.8472 32.2587 32.8472 31.6956 32.8472 30.5695L32.8472 28.9769M32.8472 28.9769H28.8657C28.1215 28.9769 27.7494 28.9769 27.4722 28.8169C27.2907 28.712 27.1399 28.5612 27.035 28.3797C26.875 28.1025 26.875 27.7304 26.875 26.9862V26.9862C26.875 26.2419 26.875 25.8698 27.035 25.5926C27.1399 25.4111 27.2907 25.2603 27.4722 25.1554C27.7494 24.9954 28.1215 24.9954 28.8657 24.9954H32.8472M32.8472 28.9769L32.8472 24.9954" stroke="#F6E6D5" stroke-width="1.5"/>
</svg>
