<svg width="16" height="16" viewBox="0 0 16 16" fill="none" xmlns="http://www.w3.org/2000/svg">
<path d="M12.3333 8.43335V10.9C12.3333 12.98 10.3933 14.6667 7.99999 14.6667C5.60666 14.6667 3.66666 12.98 3.66666 10.9V8.43335C3.66666 10.5133 5.60666 12 7.99999 12C10.3933 12 12.3333 10.5133 12.3333 8.43335Z" stroke="#0A256C" stroke-linecap="round" stroke-linejoin="round"/>
<path d="M12.3333 5.10001C12.3333 5.70668 12.1667 6.26668 11.8733 6.74668C11.16 7.92001 9.69332 8.66668 7.99999 8.66668C6.30666 8.66668 4.83999 7.92001 4.12666 6.74668C3.83332 6.26668 3.66666 5.70668 3.66666 5.10001C3.66666 4.06001 4.15332 3.12001 4.93332 2.44001C5.71999 1.75334 6.79999 1.33334 7.99999 1.33334C9.19999 1.33334 10.28 1.75334 11.0667 2.43334C11.8467 3.12001 12.3333 4.06001 12.3333 5.10001Z" stroke="#0A256C" stroke-linecap="round" stroke-linejoin="round"/>
<path d="M12.3333 5.10001V8.43334C12.3333 10.5133 10.3933 12 7.99999 12C5.60666 12 3.66666 10.5133 3.66666 8.43334V5.10001C3.66666 3.02001 5.60666 1.33334 7.99999 1.33334C9.19999 1.33334 10.28 1.75334 11.0667 2.43334C11.8467 3.12001 12.3333 4.06001 12.3333 5.10001Z" stroke="#0A256C" stroke-linecap="round" stroke-linejoin="round"/>
</svg>
