<svg width="30" height="38" viewBox="0 0 30 38" fill="none" xmlns="http://www.w3.org/2000/svg">
<path d="M9.50016 15.3332H11.3335C11.8197 15.3332 12.286 15.14 12.6299 14.7962C12.9737 14.4524 13.1668 13.9861 13.1668 13.4998C13.1668 13.0136 12.9737 12.5473 12.6299 12.2035C12.286 11.8597 11.8197 11.6665 11.3335 11.6665H9.50016C9.01393 11.6665 8.54762 11.8597 8.2038 12.2035C7.85998 12.5473 7.66683 13.0136 7.66683 13.4998C7.66683 13.9861 7.85998 14.4524 8.2038 14.7962C8.54762 15.14 9.01393 15.3332 9.50016 15.3332ZM9.50016 18.9998C9.01393 18.9998 8.54762 19.193 8.2038 19.5368C7.85998 19.8806 7.66683 20.3469 7.66683 20.8332C7.66683 21.3194 7.85998 21.7857 8.2038 22.1295C8.54762 22.4734 9.01393 22.6665 9.50016 22.6665H20.5002C20.9864 22.6665 21.4527 22.4734 21.7965 22.1295C22.1403 21.7857 22.3335 21.3194 22.3335 20.8332C22.3335 20.3469 22.1403 19.8806 21.7965 19.5368C21.4527 19.193 20.9864 18.9998 20.5002 18.9998H9.50016ZM29.6668 13.3898C29.6477 13.2214 29.6109 13.0555 29.5568 12.8948V12.7298C29.4687 12.5413 29.3511 12.3681 29.2085 12.2165L18.2085 1.2165C18.0569 1.0739 17.8837 0.956319 17.6952 0.86817C17.6404 0.860397 17.5849 0.860397 17.5302 0.86817C17.3439 0.761363 17.1382 0.692802 16.9252 0.666504H5.8335C4.37481 0.666504 2.97586 1.24597 1.94441 2.27742C0.912959 3.30887 0.333496 4.70781 0.333496 6.1665V31.8332C0.333496 33.2919 0.912959 34.6908 1.94441 35.7223C2.97586 36.7537 4.37481 37.3332 5.8335 37.3332H24.1668C25.6255 37.3332 27.0245 36.7537 28.0559 35.7223C29.0874 34.6908 29.6668 33.2919 29.6668 31.8332V13.4998C29.6668 13.4998 29.6668 13.4998 29.6668 13.3898ZM18.6668 6.91817L23.4152 11.6665H20.5002C20.0139 11.6665 19.5476 11.4733 19.2038 11.1295C18.86 10.7857 18.6668 10.3194 18.6668 9.83317V6.91817ZM26.0002 31.8332C26.0002 32.3194 25.807 32.7857 25.4632 33.1295C25.1194 33.4734 24.6531 33.6665 24.1668 33.6665H5.8335C5.34727 33.6665 4.88095 33.4734 4.53713 33.1295C4.19332 32.7857 4.00016 32.3194 4.00016 31.8332V6.1665C4.00016 5.68027 4.19332 5.21396 4.53713 4.87014C4.88095 4.52633 5.34727 4.33317 5.8335 4.33317H15.0002V9.83317C15.0002 11.2919 15.5796 12.6908 16.6111 13.7223C17.6425 14.7537 19.0415 15.3332 20.5002 15.3332H26.0002V31.8332ZM20.5002 26.3332H9.50016C9.01393 26.3332 8.54762 26.5263 8.2038 26.8701C7.85998 27.214 7.66683 27.6803 7.66683 28.1665C7.66683 28.6527 7.85998 29.1191 8.2038 29.4629C8.54762 29.8067 9.01393 29.9998 9.50016 29.9998H20.5002C20.9864 29.9998 21.4527 29.8067 21.7965 29.4629C22.1403 29.1191 22.3335 28.6527 22.3335 28.1665C22.3335 27.6803 22.1403 27.214 21.7965 26.8701C21.4527 26.5263 20.9864 26.3332 20.5002 26.3332Z" fill="#82CAE0"/>
</svg>
