<svg width="24" height="24" viewBox="0 0 24 24" fill="none" xmlns="http://www.w3.org/2000/svg">
<path d="M19.8732 3.97921C17.0089 3.7033 14.81 2.64411 13.1507 0.741033C12.5458 0.0479865 11.4555 0.0465333 10.8493 0.741033C9.18998 2.64411 6.99107 3.7033 4.12678 3.97921C3.3194 4.05721 2.71045 4.71885 2.71045 5.5183L2.7119 13.4618C3.10303 17.6968 5.84043 19.5797 8.25539 21.2408C9.23568 21.9152 10.162 22.5522 10.8857 23.3035C11.4975 23.9384 12.5026 23.9381 13.1148 23.3035C13.8381 22.5522 14.7644 21.9152 15.7447 21.2408C18.1597 19.5797 20.8971 17.6968 21.2896 13.428V5.5183C21.2895 4.7188 20.6806 4.05721 19.8732 3.97921ZM15.3277 20.6342C14.3154 21.3304 13.3595 21.9878 12.5845 22.7927C12.2732 23.1155 11.7264 23.1155 11.4158 22.7927C10.6404 21.9878 9.68461 21.3303 8.67234 20.6342C6.27932 18.988 3.80432 17.2857 3.44667 13.428V5.5183C3.44667 5.10003 3.7695 4.75335 4.19723 4.71219C7.25779 4.41725 9.61523 3.27664 11.4044 1.22492C11.7162 0.86708 12.2845 0.86783 12.5956 1.22492C14.3848 3.27664 16.7422 4.41725 19.8028 4.71219C20.2305 4.75335 20.5533 5.10008 20.5533 5.5183L20.5548 13.3942C20.1957 17.2857 17.7207 18.988 15.3277 20.6342Z" fill="#0A256C"/>
<path d="M12.0029 6.5542C8.99514 6.5542 6.54822 8.99578 6.54822 11.9967C6.54822 15.0442 9.01506 17.4452 12.0029 17.4452C15.0138 17.4452 17.4518 15.0144 17.4518 11.9967C17.4518 8.99578 15.0074 6.5542 12.0029 6.5542ZM9.41101 15.9347C9.96072 15.0036 10.9255 14.4326 12.0029 14.4326C13.0773 14.4326 14.0402 15.0039 14.5895 15.9356C13.8296 16.4412 12.9427 16.709 12.0029 16.709C11.0651 16.709 10.1764 16.4412 9.41101 15.9347ZM15.1739 15.4754C14.4848 14.3693 13.3095 13.6964 12.0029 13.6964C10.693 13.6964 9.51564 14.3693 8.82615 15.4756C7.84398 14.5834 7.28439 13.34 7.28439 11.9967C7.28439 9.40162 9.40098 7.29042 12.0029 7.29042C14.6015 7.29042 16.7156 9.40162 16.7156 11.9967C16.7156 13.3394 16.1565 14.5823 15.1739 15.4754Z" fill="#0A256C"/>
<path d="M12 9.28076C11.0222 9.28076 10.2267 10.0761 10.2267 11.0539C10.2267 12.0316 11.0222 12.8269 12 12.8269C12.9778 12.8269 13.7733 12.0316 13.7733 11.0539C13.7733 10.0761 12.9778 9.28076 12 9.28076ZM12 12.0908C11.4281 12.0908 10.9629 11.6256 10.9629 11.0539C10.9629 10.4821 11.4281 10.0169 12 10.0169C12.5719 10.0169 13.0371 10.4821 13.0371 11.0539C13.0371 11.6256 12.5719 12.0908 12 12.0908Z" fill="#0A256C"/>
</svg>
