<svg width="16" height="16" viewBox="0 0 16 16" fill="none" xmlns="http://www.w3.org/2000/svg">
<g clip-path="url(#clip0_168_1647)">
<path d="M11.2879 5.02131C11.5485 4.76072 11.9711 4.76072 12.2317 5.02131C12.4923 5.282 12.4923 5.70469 12.2317 5.96529L7.2188 10.9784C6.95811 11.239 6.53542 11.239 6.27482 10.9784L3.76826 8.47185C3.50766 8.21126 3.50766 7.78856 3.76826 7.52797C4.02894 7.26728 4.45164 7.26728 4.71223 7.52797L6.74681 9.56254L11.2879 5.02131ZM7.99996 0C10.2088 0 12.209 0.89558 13.6567 2.3433C15.1044 3.79092 16 5.79123 16 7.99996C16 10.209 15.1045 12.209 13.6567 13.6567C12.209 15.1044 10.2088 16 7.99996 16C5.79096 16 3.79092 15.1045 2.3433 13.6567C0.8954 12.209 0 10.209 0 7.99996C0 5.79123 0.89558 3.79092 2.3433 2.3433C3.79092 0.8954 5.79096 0 7.99996 0ZM12.7128 3.28718C11.5068 2.08126 9.8405 1.33527 7.99996 1.33527C6.15932 1.33527 4.49301 2.08126 3.28718 3.28718C2.08126 4.4931 1.33527 6.1595 1.33527 7.99996C1.33527 9.84068 2.08126 11.507 3.28718 12.7128C4.49301 13.9187 6.15932 14.6646 7.99996 14.6646C9.8405 14.6646 11.5068 13.9187 12.7128 12.7128C13.9187 11.507 14.6646 9.84068 14.6646 7.99996C14.6646 6.1595 13.9187 4.4931 12.7128 3.28718Z" fill="#939FBE"/>
</g>
<defs>
<clipPath id="clip0_168_1647">
<rect width="16" height="16" fill="white"/>
</clipPath>
</defs>
</svg>
