<svg width="16" height="20" viewBox="0 0 16 20" fill="none" xmlns="http://www.w3.org/2000/svg">
<path d="M15.0313 4.24107C15.2188 4.4494 15.3795 4.73214 15.5134 5.08929C15.6473 5.44643 15.7143 5.77381 15.7143 6.07143V18.9286C15.7143 19.2262 15.6205 19.4792 15.433 19.6875C15.2455 19.8958 15.0179 20 14.75 20H1.25001C0.982149 20 0.754471 19.8958 0.566971 19.6875C0.379471 19.4792 0.285721 19.2262 0.285721 18.9286V1.07143C0.285721 0.77381 0.379471 0.520833 0.566971 0.3125C0.754471 0.104167 0.982149 0 1.25001 0H10.25C10.5179 0 10.8125 0.0744048 11.1339 0.223214C11.4554 0.372024 11.7098 0.550595 11.8973 0.758929L15.0313 4.24107ZM10.5714 1.51786V5.71429H14.3482C14.2813 5.49851 14.2076 5.34598 14.1272 5.2567L10.9833 1.76339C10.9029 1.67411 10.7656 1.59226 10.5714 1.51786ZM14.4286 18.5714V7.14286H10.25C9.98215 7.14286 9.75447 7.03869 9.56697 6.83036C9.37947 6.62202 9.28572 6.36905 9.28572 6.07143V1.42857H1.57144V18.5714H14.4286ZM4.14286 8.92857C4.14286 8.8244 4.173 8.73884 4.23327 8.67188C4.29353 8.60491 4.37054 8.57143 4.46429 8.57143H11.5357C11.6295 8.57143 11.7065 8.60491 11.7667 8.67188C11.827 8.73884 11.8571 8.8244 11.8571 8.92857V9.64286C11.8571 9.74702 11.827 9.83259 11.7667 9.89955C11.7065 9.96652 11.6295 10 11.5357 10H4.46429C4.37054 10 4.29353 9.96652 4.23327 9.89955C4.173 9.83259 4.14286 9.74702 4.14286 9.64286V8.92857ZM11.5357 11.4286C11.6295 11.4286 11.7065 11.4621 11.7667 11.529C11.827 11.596 11.8571 11.6815 11.8571 11.7857V12.5C11.8571 12.6042 11.827 12.6897 11.7667 12.7567C11.7065 12.8237 11.6295 12.8571 11.5357 12.8571H4.46429C4.37054 12.8571 4.29353 12.8237 4.23327 12.7567C4.173 12.6897 4.14286 12.6042 4.14286 12.5V11.7857C4.14286 11.6815 4.173 11.596 4.23327 11.529C4.29353 11.4621 4.37054 11.4286 4.46429 11.4286H11.5357ZM11.5357 14.2857C11.6295 14.2857 11.7065 14.3192 11.7667 14.3862C11.827 14.4531 11.8571 14.5387 11.8571 14.6429V15.3571C11.8571 15.4613 11.827 15.5469 11.7667 15.6138C11.7065 15.6808 11.6295 15.7143 11.5357 15.7143H4.46429C4.37054 15.7143 4.29353 15.6808 4.23327 15.6138C4.173 15.5469 4.14286 15.4613 4.14286 15.3571V14.6429C4.14286 14.5387 4.173 14.4531 4.23327 14.3862C4.29353 14.3192 4.37054 14.2857 4.46429 14.2857H11.5357Z" fill="black"/>
</svg>
