<svg width="27" height="27" viewBox="0 0 27 27" fill="none" xmlns="http://www.w3.org/2000/svg">
<mask id="path-1-inside-1_114_1818" fill="white">
<path d="M13.5 23.8949C13.4352 23.8949 13.3707 23.885 13.3089 23.8654C4.69421 21.1367 3.86016 16.7686 4.67818 13.5847C5.49915 10.3869 5.67085 8.51799 4.33098 7.17812C4.27167 7.11886 4.22472 7.0484 4.19288 6.97084C4.16103 6.89328 4.14491 6.81016 4.14546 6.72632C4.14601 6.64248 4.16322 6.55958 4.19608 6.48245C4.22894 6.40531 4.2768 6.33547 4.33688 6.27699L7.41531 3.28421C7.49177 3.20982 7.58581 3.15597 7.68867 3.12766C7.79153 3.09936 7.89988 3.09751 8.00364 3.12231C8.1074 3.1471 8.20321 3.19773 8.28217 3.26948C8.36112 3.34123 8.42065 3.43177 8.45523 3.5327C8.47759 3.59598 9.0429 5.17506 10.6152 5.07254C11.1052 5.03875 11.5771 4.87425 11.9819 4.59616C12.3868 4.31807 12.7096 3.93657 12.917 3.49135C12.9661 3.3776 13.0473 3.28066 13.1507 3.21245C13.2542 3.14425 13.3753 3.10775 13.4992 3.10745H13.5034C13.6277 3.1077 13.7491 3.14467 13.8525 3.21372C13.9559 3.28278 14.0365 3.38083 14.0843 3.49557C14.2922 3.93969 14.6152 4.32008 15.0197 4.59729C15.4242 4.87451 15.8956 5.03845 16.3848 5.07212C17.9799 5.17548 18.5397 3.54915 18.5448 3.5327C18.5794 3.43177 18.6389 3.34123 18.7178 3.26948C18.7968 3.19773 18.8926 3.1471 18.9964 3.12231C19.1001 3.09751 19.2085 3.09936 19.3113 3.12766C19.4142 3.15597 19.5082 3.20982 19.5847 3.28421L22.6631 6.27699C22.7232 6.33545 22.7711 6.40526 22.804 6.48238C22.8369 6.5595 22.8542 6.64239 22.8548 6.72623C22.8554 6.81008 22.8393 6.8932 22.8075 6.97077C22.7757 7.04835 22.7287 7.11883 22.6695 7.17812C21.3292 8.51799 21.5009 10.3869 22.3218 13.5847C23.1394 16.7686 22.3058 21.1367 13.6911 23.865C13.6293 23.8847 13.5649 23.8948 13.5 23.8949ZM5.64891 6.76679C7.08329 8.65342 6.61712 11.1235 5.90415 13.8999C4.92329 17.7212 7.47774 20.6465 13.5 22.5976C19.5219 20.6465 22.0771 17.7208 21.0959 13.8994C20.3829 11.1235 19.9163 8.65299 21.3507 6.76637L19.3109 4.78313C18.9944 5.28461 18.5502 5.6928 18.0238 5.96579C17.4974 6.23878 16.9078 6.36672 16.3156 6.33648C15.7718 6.3104 15.2398 6.16939 14.7544 5.92273C14.2691 5.67608 13.8416 5.32938 13.5 4.90548C13.1584 5.32938 12.7309 5.67608 12.2456 5.92273C11.7603 6.16939 11.2282 6.3104 10.6844 6.33648C10.0928 6.36323 9.50462 6.23386 8.97885 5.96135C8.45309 5.68884 8.00828 5.28279 7.6891 4.78398L5.64891 6.76679Z"/>
</mask>
<path d="M13.5 23.8949C13.4352 23.8949 13.3707 23.885 13.3089 23.8654C4.69421 21.1367 3.86016 16.7686 4.67818 13.5847C5.49915 10.3869 5.67085 8.51799 4.33098 7.17812C4.27167 7.11886 4.22472 7.0484 4.19288 6.97084C4.16103 6.89328 4.14491 6.81016 4.14546 6.72632C4.14601 6.64248 4.16322 6.55958 4.19608 6.48245C4.22894 6.40531 4.2768 6.33547 4.33688 6.27699L7.41531 3.28421C7.49177 3.20982 7.58581 3.15597 7.68867 3.12766C7.79153 3.09936 7.89988 3.09751 8.00364 3.12231C8.1074 3.1471 8.20321 3.19773 8.28217 3.26948C8.36112 3.34123 8.42065 3.43177 8.45523 3.5327C8.47759 3.59598 9.0429 5.17506 10.6152 5.07254C11.1052 5.03875 11.5771 4.87425 11.9819 4.59616C12.3868 4.31807 12.7096 3.93657 12.917 3.49135C12.9661 3.3776 13.0473 3.28066 13.1507 3.21245C13.2542 3.14425 13.3753 3.10775 13.4992 3.10745H13.5034C13.6277 3.1077 13.7491 3.14467 13.8525 3.21372C13.9559 3.28278 14.0365 3.38083 14.0843 3.49557C14.2922 3.93969 14.6152 4.32008 15.0197 4.59729C15.4242 4.87451 15.8956 5.03845 16.3848 5.07212C17.9799 5.17548 18.5397 3.54915 18.5448 3.5327C18.5794 3.43177 18.6389 3.34123 18.7178 3.26948C18.7968 3.19773 18.8926 3.1471 18.9964 3.12231C19.1001 3.09751 19.2085 3.09936 19.3113 3.12766C19.4142 3.15597 19.5082 3.20982 19.5847 3.28421L22.6631 6.27699C22.7232 6.33545 22.7711 6.40526 22.804 6.48238C22.8369 6.5595 22.8542 6.64239 22.8548 6.72623C22.8554 6.81008 22.8393 6.8932 22.8075 6.97077C22.7757 7.04835 22.7287 7.11883 22.6695 7.17812C21.3292 8.51799 21.5009 10.3869 22.3218 13.5847C23.1394 16.7686 22.3058 21.1367 13.6911 23.865C13.6293 23.8847 13.5649 23.8948 13.5 23.8949ZM5.64891 6.76679C7.08329 8.65342 6.61712 11.1235 5.90415 13.8999C4.92329 17.7212 7.47774 20.6465 13.5 22.5976C19.5219 20.6465 22.0771 17.7208 21.0959 13.8994C20.3829 11.1235 19.9163 8.65299 21.3507 6.76637L19.3109 4.78313C18.9944 5.28461 18.5502 5.6928 18.0238 5.96579C17.4974 6.23878 16.9078 6.36672 16.3156 6.33648C15.7718 6.3104 15.2398 6.16939 14.7544 5.92273C14.2691 5.67608 13.8416 5.32938 13.5 4.90548C13.1584 5.32938 12.7309 5.67608 12.2456 5.92273C11.7603 6.16939 11.2282 6.3104 10.6844 6.33648C10.0928 6.36323 9.50462 6.23386 8.97885 5.96135C8.45309 5.68884 8.00828 5.28279 7.6891 4.78398L5.64891 6.76679Z" fill="#0A256C"/>
<path d="M13.5 23.8949L13.5008 25.8949L13.5034 25.8949L13.5 23.8949ZM13.3089 23.8654L13.9133 21.9589L13.9128 21.9587L13.3089 23.8654ZM4.67818 13.5847L6.61527 14.0824L6.61536 14.082L4.67818 13.5847ZM4.33098 7.17812L5.74519 5.76391L5.74461 5.76332L4.33098 7.17812ZM4.33688 6.27699L2.94276 4.84297L2.94192 4.84379L4.33688 6.27699ZM7.41531 3.28421L8.80943 4.71823L8.80993 4.71775L7.41531 3.28421ZM8.45523 3.5327L6.56318 4.1809L6.56629 4.18996L6.56948 4.19899L8.45523 3.5327ZM10.6152 5.07254L10.7454 7.06832L10.7528 7.0678L10.6152 5.07254ZM12.917 3.49135L14.73 4.33568L14.7421 4.30983L14.7533 4.28365L12.917 3.49135ZM13.4992 3.10745V1.10744L13.4942 1.10745L13.4992 3.10745ZM13.5034 3.10745L13.5074 1.10745H13.5034V3.10745ZM14.0843 3.49557L12.2381 4.2648L12.2547 4.3046L12.273 4.34365L14.0843 3.49557ZM16.3848 5.07212L16.2475 7.06742L16.2555 7.06793L16.3848 5.07212ZM18.5448 3.5327L16.6527 2.88449L16.6425 2.91436L16.6332 2.94453L18.5448 3.5327ZM19.5847 3.28421L18.1901 4.71775L18.1906 4.71823L19.5847 3.28421ZM22.6631 6.27699L24.0574 4.84313L24.0573 4.84297L22.6631 6.27699ZM22.6695 7.17812L24.0835 8.59256L24.0837 8.59226L22.6695 7.17812ZM22.3218 13.5847L20.3847 14.082L20.3847 14.0822L22.3218 13.5847ZM13.6911 23.865L13.0873 21.9583L13.0825 21.9598L13.6911 23.865ZM5.64891 6.76679L4.25501 5.33255L2.98472 6.56713L4.05681 7.97725L5.64891 6.76679ZM5.90415 13.8999L3.967 13.4024L3.96695 13.4026L5.90415 13.8999ZM13.5 22.5976L12.8836 24.5003L13.5 24.7L14.1165 24.5003L13.5 22.5976ZM21.0959 13.8994L23.033 13.402L23.033 13.4019L21.0959 13.8994ZM21.3507 6.76637L22.9428 7.97682L24.0147 6.567L22.7449 5.33242L21.3507 6.76637ZM19.3109 4.78313L20.7051 3.34919L18.9362 1.62932L17.6195 3.71577L19.3109 4.78313ZM16.3156 6.33648L16.4176 4.33907L16.4114 4.33877L16.3156 6.33648ZM13.5 4.90548L15.0573 3.65058L13.5 1.71798L11.9427 3.65058L13.5 4.90548ZM10.6844 6.33648L10.7748 8.33444L10.7802 8.33418L10.6844 6.33648ZM7.6891 4.78398L9.37374 3.70602L8.05277 1.6416L6.2952 3.34974L7.6891 4.78398ZM13.4992 21.8949C13.6397 21.8949 13.7794 21.9164 13.9133 21.9589L12.7045 25.7719C12.962 25.8535 13.2306 25.895 13.5008 25.8949L13.4992 21.8949ZM13.9128 21.9587C9.84633 20.6707 7.97178 19.1037 7.13614 17.8104C6.3343 16.5693 6.30454 15.2918 6.61527 14.0824L2.74109 13.087C2.23381 15.0615 2.21206 17.56 3.77641 19.9811C5.30696 22.35 8.15678 24.3314 12.705 25.772L13.9128 21.9587ZM6.61536 14.082C7.02731 12.4774 7.34273 10.9762 7.31445 9.64228C7.28381 8.19789 6.84829 6.867 5.74519 5.76391L2.91676 8.59233C3.15354 8.82911 3.3021 9.10261 3.31534 9.72709C3.33093 10.4621 3.15002 11.4942 2.741 13.0874L6.61536 14.082ZM5.74461 5.76332C5.87275 5.89135 5.97417 6.04358 6.04298 6.21115L2.34277 7.73053C2.47528 8.05322 2.67059 8.34636 2.91735 8.59291L5.74461 5.76332ZM6.04298 6.21115C6.11179 6.37872 6.1466 6.55829 6.14542 6.73943L2.1455 6.71321C2.14322 7.06203 2.21027 7.40784 2.34277 7.73053L6.04298 6.21115ZM6.14542 6.73943C6.14423 6.92057 6.10706 7.09967 6.03606 7.26632L2.35609 5.69857C2.21937 6.01949 2.14779 6.36439 2.1455 6.71321L6.14542 6.73943ZM6.03606 7.26632C5.96507 7.43297 5.86166 7.58385 5.73185 7.7102L2.94192 4.84379C2.69194 5.0871 2.49281 5.37765 2.35609 5.69857L6.03606 7.26632ZM5.73101 7.71101L8.80943 4.71823L6.02118 1.85019L2.94276 4.84297L5.73101 7.71101ZM8.80993 4.71775C8.64472 4.87847 8.44156 4.99482 8.21933 5.05598L7.15801 1.19935C6.73006 1.31712 6.33883 1.54117 6.02068 1.85068L8.80993 4.71775ZM8.21933 5.05598C7.9971 5.11713 7.76301 5.12111 7.53883 5.06755L8.46845 1.17707C8.03674 1.07391 7.58596 1.08158 7.15801 1.19935L8.21933 5.05598ZM7.53883 5.06755C7.31465 5.01398 7.10766 4.90461 6.93708 4.74959L9.62725 1.78936C9.29877 1.49085 8.90015 1.28022 8.46845 1.17707L7.53883 5.06755ZM6.93708 4.74959C6.7665 4.59457 6.63788 4.39895 6.56318 4.1809L10.3473 2.88449C10.2034 2.46459 9.95574 2.08788 9.62725 1.78936L6.93708 4.74959ZM6.56948 4.19899C6.6142 4.32558 6.8635 5.01193 7.44794 5.68078C8.06904 6.39159 9.16477 7.17136 10.7454 7.0683L10.4851 3.07678C10.4609 3.07836 10.457 3.0758 10.4675 3.07792C10.4777 3.07997 10.4891 3.08394 10.4982 3.08844C10.5141 3.09622 10.4986 3.09289 10.46 3.04881C10.4207 3.00375 10.3838 2.94611 10.3558 2.89229C10.33 2.84258 10.3256 2.82292 10.341 2.8664L6.56948 4.19899ZM10.7528 7.0678C11.5994 7.00941 12.4149 6.72517 13.1144 6.24467L10.8495 2.94765C10.7394 3.02332 10.6109 3.06809 10.4776 3.07728L10.7528 7.0678ZM13.1144 6.24467C13.8139 5.76417 14.3718 5.10497 14.73 4.33568L11.1039 2.64702C11.0475 2.76817 10.9597 2.87198 10.8495 2.94765L13.1144 6.24467ZM14.7533 4.28365C14.648 4.52775 14.4737 4.73576 14.2517 4.88212L12.0497 1.54279C11.6209 1.82555 11.2841 2.22744 11.0806 2.69906L14.7533 4.28365ZM14.2517 4.88212C14.0298 5.02847 13.7699 5.10679 13.5041 5.10744L13.4942 1.10745C12.9806 1.10872 12.4785 1.26003 12.0497 1.54279L14.2517 4.88212ZM13.4992 5.10745H13.5034V1.10745H13.4992V5.10745ZM13.4994 5.10744C13.2295 5.1069 12.9658 5.02663 12.7414 4.87671L14.9636 1.55074C14.5325 1.26271 14.0259 1.10849 13.5074 1.10745L13.4994 5.10744ZM12.7414 4.87671C12.517 4.72678 12.3419 4.5139 12.2381 4.2648L15.9305 2.72635C15.7311 2.24777 15.3947 1.83877 14.9636 1.55074L12.7414 4.87671ZM12.273 4.34365C12.6323 5.11094 13.1903 5.76813 13.8891 6.24706L16.1503 2.94753C16.0402 2.87203 15.9522 2.76844 15.8956 2.64749L12.273 4.34365ZM13.8891 6.24706C14.588 6.726 15.4023 7.00924 16.2475 7.0674L16.5221 3.07684C16.3889 3.06767 16.2605 3.02302 16.1503 2.94753L13.8891 6.24706ZM16.2555 7.06793C17.8601 7.17191 18.9625 6.36721 19.5781 5.65067C20.1505 4.98433 20.401 4.30089 20.4563 4.12087L16.6332 2.94453C16.6375 2.93063 16.641 2.91984 16.6424 2.91564C16.6441 2.91015 16.6456 2.90565 16.6466 2.90262C16.6487 2.89653 16.6503 2.89162 16.6514 2.8884C16.6537 2.88175 16.6556 2.87643 16.6569 2.87267C16.6596 2.86492 16.6617 2.85914 16.6632 2.85525C16.6661 2.84734 16.6674 2.84425 16.667 2.84523C16.6661 2.84749 16.6597 2.86268 16.6478 2.88602C16.6214 2.93781 16.5847 2.99672 16.544 3.04401C16.5041 3.09053 16.4868 3.0953 16.5014 3.08801C16.5101 3.08366 16.5214 3.07961 16.5318 3.07747C16.5425 3.07526 16.5386 3.07789 16.5141 3.0763L16.2555 7.06793ZM20.4368 4.1809C20.3621 4.39895 20.2335 4.59457 20.0629 4.74959L17.3728 1.78936C17.0443 2.08788 16.7966 2.46459 16.6527 2.88449L20.4368 4.1809ZM20.0629 4.74959C19.8924 4.90461 19.6854 5.01398 19.4612 5.06755L18.5316 1.17707C18.0999 1.28022 17.7012 1.49084 17.3728 1.78936L20.0629 4.74959ZM19.4612 5.06755C19.237 5.12111 19.0029 5.11713 18.7807 5.05598L19.842 1.19935C19.4141 1.08158 18.9633 1.07391 18.5316 1.17707L19.4612 5.06755ZM18.7807 5.05598C18.5585 4.99482 18.3553 4.87847 18.1901 4.71775L20.9793 1.85068C20.6612 1.54117 20.27 1.31712 19.842 1.19935L18.7807 5.05598ZM18.1906 4.71823L21.269 7.71101L24.0573 4.84297L20.9788 1.85019L18.1906 4.71823ZM21.2688 7.71086C21.139 7.58456 21.0355 7.43372 20.9644 7.26712L24.6437 5.69764C24.5068 5.3768 24.3075 5.08633 24.0574 4.84313L21.2688 7.71086ZM20.9644 7.26712C20.8934 7.10052 20.8561 6.92144 20.8548 6.74028L24.8547 6.71219C24.8523 6.36334 24.7805 6.01848 24.6437 5.69764L20.9644 7.26712ZM20.8548 6.74028C20.8535 6.55914 20.8883 6.37955 20.957 6.21195L24.6579 7.7296C24.7903 7.40685 24.8572 7.06101 24.8547 6.71219L20.8548 6.74028ZM20.957 6.21195C21.0257 6.04434 21.1271 5.89207 21.2552 5.76398L24.0837 8.59226C24.3304 8.34559 24.5256 8.05236 24.6579 7.7296L20.957 6.21195ZM21.2555 5.76368C20.1521 6.86672 19.7163 8.19765 19.6856 9.64218C19.6573 10.9762 19.9727 12.4774 20.3847 14.082L24.259 13.0874C23.85 11.4942 23.6691 10.4621 23.6847 9.7272C23.698 9.10285 23.8465 8.82939 24.0835 8.59256L21.2555 5.76368ZM20.3847 14.0822C20.6953 15.2918 20.6655 16.5694 19.8637 17.8103C19.0281 19.1036 17.1537 20.6705 13.0873 21.9583L14.295 25.7716C18.8432 24.3312 21.6929 22.3499 23.2235 19.9811C24.7877 17.5599 24.766 15.0615 24.259 13.0873L20.3847 14.0822ZM13.0825 21.9598C13.2164 21.917 13.356 21.8952 13.4966 21.8949L13.5034 25.8949C13.7737 25.8944 14.0423 25.8524 14.2998 25.7701L13.0825 21.9598ZM4.05681 7.97725C4.42297 8.45886 4.60193 9.06073 4.58227 9.95575C4.5615 10.9015 4.32392 12.0125 3.967 13.4024L7.8413 14.3973C8.19734 13.0108 8.54934 11.4987 8.5813 10.0436C8.61438 8.53782 8.30923 6.96135 7.24102 5.55634L4.05681 7.97725ZM3.96695 13.4026C3.31645 15.9369 3.85729 18.305 5.56948 20.2656C7.18284 22.1131 9.72431 23.4767 12.8836 24.5003L14.1164 20.695C11.2534 19.7674 9.50655 18.6928 8.58234 17.6345C7.75695 16.6894 7.51098 15.6842 7.84135 14.3971L3.96695 13.4026ZM14.1165 24.5003C17.2756 23.4767 19.8171 22.1129 21.4305 20.2654C23.1428 18.3047 23.6838 15.9365 23.033 13.402L19.1587 14.3969C19.4892 15.6837 19.2432 16.689 18.4177 17.6343C17.4933 18.6928 15.7463 19.7675 12.8835 20.695L14.1165 24.5003ZM23.033 13.4019C22.6761 12.0122 22.4384 10.9011 22.4175 9.95531C22.3978 9.06017 22.5767 8.45831 22.9428 7.97682L19.7586 5.55591C18.6903 6.96105 18.3853 8.53775 18.4185 10.0435C18.4506 11.4986 18.8027 13.0107 19.1587 14.397L23.033 13.4019ZM22.7449 5.33242L20.7051 3.34919L17.9167 6.21708L19.9565 8.20031L22.7449 5.33242ZM17.6195 3.71577C17.4926 3.917 17.3143 4.08079 17.1031 4.19034L18.9445 7.74125C19.7861 7.30481 20.4963 6.65222 21.0023 5.8505L17.6195 3.71577ZM17.1031 4.19034C16.8918 4.29988 16.6552 4.35122 16.4176 4.33908L16.2136 8.33388C17.1604 8.38223 18.103 8.17768 18.9445 7.74125L17.1031 4.19034ZM16.4114 4.33877C16.1499 4.32623 15.894 4.25842 15.6606 4.13979L13.8483 7.70567C14.5855 8.08036 15.3938 8.29457 16.2198 8.33418L16.4114 4.33877ZM15.6606 4.13979C15.4272 4.02117 15.2216 3.85444 15.0573 3.65058L11.9427 6.16038C12.4616 6.80432 13.111 7.33098 13.8483 7.70567L15.6606 4.13979ZM11.9427 3.65058C11.7784 3.85444 11.5728 4.02117 11.3394 4.13979L13.1517 7.70567C13.889 7.33098 14.5384 6.80432 15.0573 6.16038L11.9427 3.65058ZM11.3394 4.13979C11.106 4.25842 10.8501 4.32623 10.5886 4.33877L10.7802 8.33418C11.6062 8.29457 12.4145 8.08036 13.1517 7.70567L11.3394 4.13979ZM10.5941 4.33852C10.353 4.34942 10.1134 4.29671 9.89919 4.18569L8.05851 7.73701C8.89584 8.17101 9.83262 8.37705 10.7748 8.33444L10.5941 4.33852ZM9.89919 4.18569C9.68499 4.07467 9.50378 3.90924 9.37374 3.70602L6.00446 5.86194C6.51278 6.65634 7.22118 7.30302 8.05851 7.73701L9.89919 4.18569ZM6.2952 3.34974L4.25501 5.33255L7.04282 8.20103L9.083 6.21821L6.2952 3.34974Z" fill="#0A256C" mask="url(#path-1-inside-1_114_1818)"/>
<path d="M13.5 14.1835C13.1425 14.1836 12.793 14.0776 12.4957 13.8791C12.1985 13.6805 11.9668 13.3982 11.8299 13.068C11.6931 12.7377 11.6572 12.3743 11.727 12.0237C11.7967 11.6731 11.9688 11.351 12.2216 11.0982C12.4744 10.8454 12.7965 10.6733 13.1471 10.6036C13.4977 10.5338 13.8611 10.5697 14.1914 10.7065C14.5217 10.8433 14.8039 11.0751 15.0025 11.3723C15.201 11.6696 15.307 12.0191 15.3069 12.3766C15.3062 12.8556 15.1156 13.3148 14.7769 13.6535C14.4382 13.9922 13.979 14.1828 13.5 14.1835ZM13.5 11.8349C13.3928 11.8348 13.2881 11.8665 13.1989 11.926C13.1098 11.9855 13.0403 12.07 12.9992 12.169C12.9582 12.268 12.9474 12.3769 12.9682 12.482C12.9891 12.5871 13.0407 12.6837 13.1164 12.7595C13.1921 12.8353 13.2887 12.8869 13.3937 12.9078C13.4988 12.9288 13.6078 12.9181 13.7068 12.8771C13.8058 12.8361 13.8904 12.7667 13.9499 12.6776C14.0095 12.5885 14.0413 12.4837 14.0413 12.3766C14.0411 12.233 13.9841 12.0954 13.8826 11.9938C13.7812 11.8923 13.6436 11.8351 13.5 11.8349Z" fill="#0A256C"/>
<path d="M13.5 17.2861C13.3322 17.2861 13.1712 17.2194 13.0525 17.1008C12.9339 16.9821 12.8672 16.8211 12.8672 16.6533V13.9917C12.8672 13.8239 12.9339 13.6629 13.0525 13.5442C13.1712 13.4256 13.3322 13.3589 13.5 13.3589C13.6678 13.3589 13.8288 13.4256 13.9475 13.5442C14.0661 13.6629 14.1328 13.8239 14.1328 13.9917V16.6533C14.1328 16.8211 14.0661 16.9821 13.9475 17.1008C13.8288 17.2194 13.6678 17.2861 13.5 17.2861Z" fill="#0A256C"/>
</svg>
