<svg width="20" height="21" viewBox="0 0 20 21" fill="none" xmlns="http://www.w3.org/2000/svg">
<path d="M16.94 3.92L11.77 0.930002C10.78 0.360002 9.23002 0.360002 8.24002 0.930002L3.02002 3.94C0.950017 5.34 0.830017 5.55 0.830017 7.78V13.21C0.830017 15.44 0.950017 15.66 3.06002 17.08L8.23002 20.07C8.73002 20.36 9.37002 20.5 10 20.5C10.63 20.5 11.27 20.36 11.76 20.07L16.98 17.06C19.05 15.66 19.17 15.45 19.17 13.22V7.78C19.17 5.55 19.05 5.34 16.94 3.92ZM10 13.75C8.21002 13.75 6.75002 12.29 6.75002 10.5C6.75002 8.71 8.21002 7.25 10 7.25C11.79 7.25 13.25 8.71 13.25 10.5C13.25 12.29 11.79 13.75 10 13.75Z" fill="#0A256C"/>
</svg>
