<svg width="24" height="25" viewBox="0 0 24 25" fill="none" xmlns="http://www.w3.org/2000/svg">
<rect width="24" height="24" transform="translate(0 0.5)" fill="white"/>
<path d="M2.76758 7.07143C2.76758 6.32795 2.76803 5.81063 2.79692 5.40638C2.82527 5.00948 2.87817 4.78073 2.95385 4.60727C3.17906 4.09107 3.59107 3.67906 4.10727 3.45385C4.28073 3.37817 4.50948 3.32527 4.90638 3.29692C5.31063 3.26803 5.82795 3.26758 6.57143 3.26758C7.3149 3.26758 7.83223 3.26803 8.23648 3.29692C8.63337 3.32527 8.86212 3.37817 9.03558 3.45385C9.55179 3.67906 9.96379 4.09107 10.189 4.60727C10.2647 4.78073 10.3176 5.00948 10.3459 5.40638C10.3748 5.81063 10.3753 6.32795 10.3753 7.07143C10.3753 7.8149 10.3748 8.33223 10.3459 8.73648C10.3176 9.13337 10.2647 9.36212 10.189 9.53558C9.96379 10.0518 9.55179 10.4638 9.03558 10.689C8.86212 10.7647 8.63337 10.8176 8.23648 10.8459C7.83223 10.8748 7.3149 10.8753 6.57143 10.8753C5.82795 10.8753 5.31063 10.8748 4.90638 10.8459C4.50948 10.8176 4.28073 10.7647 4.10727 10.689C3.59107 10.4638 3.17906 10.0518 2.95385 9.53558C2.87817 9.36212 2.82527 9.13337 2.79692 8.73648C2.76803 8.33223 2.76758 7.8149 2.76758 7.07143Z" fill="#0A256C" stroke="#0A256C" stroke-width="1.53516"/>
<path d="M2.76758 17.9284C2.76758 17.1849 2.76803 16.6676 2.79692 16.2633C2.82527 15.8664 2.87817 15.6377 2.95385 15.4642C3.17906 14.948 3.59107 14.536 4.10727 14.3108C4.28073 14.2351 4.50948 14.1822 4.90638 14.1538C5.31063 14.125 5.82795 14.1245 6.57143 14.1245C7.3149 14.1245 7.83223 14.125 8.23648 14.1538C8.63337 14.1822 8.86212 14.2351 9.03558 14.3108C9.55179 14.536 9.96379 14.948 10.189 15.4642C10.2647 15.6377 10.3176 15.8664 10.3459 16.2633C10.3748 16.6676 10.3753 17.1849 10.3753 17.9284C10.3753 18.6718 10.3748 19.1892 10.3459 19.5934C10.3176 19.9903 10.2647 20.2191 10.189 20.3925C9.96379 20.9087 9.55179 21.3207 9.03558 21.5459C8.86212 21.6216 8.63337 21.6745 8.23648 21.7029C7.83223 21.7318 7.3149 21.7322 6.57143 21.7322C5.82795 21.7322 5.31063 21.7318 4.90638 21.7029C4.50948 21.6745 4.28073 21.6216 4.10727 21.5459C3.59107 21.3207 3.17906 20.9087 2.95385 20.3925C2.87817 20.2191 2.82527 19.9903 2.79692 19.5934C2.76803 19.1892 2.76758 18.6718 2.76758 17.9284Z" fill="#0A256C" stroke="#0A256C" stroke-width="1.53516"/>
<path d="M13.6248 7.07143C13.6248 6.32795 13.6252 5.81063 13.6541 5.40638C13.6824 5.00948 13.7353 4.78073 13.811 4.60727C14.0362 4.09107 14.4482 3.67906 14.9645 3.45385C15.1379 3.37817 15.3667 3.32527 15.7636 3.29692C16.1678 3.26803 16.6851 3.26758 17.4286 3.26758C18.1721 3.26758 18.6894 3.26803 19.0937 3.29692C19.4906 3.32527 19.7193 3.37817 19.8928 3.45385C20.409 3.67906 20.821 4.09107 21.0462 4.60727C21.1219 4.78073 21.1748 5.00948 21.2031 5.40638C21.232 5.81063 21.2325 6.32795 21.2325 7.07143C21.2325 7.8149 21.232 8.33223 21.2031 8.73648C21.1748 9.13337 21.1219 9.36212 21.0462 9.53558C20.821 10.0518 20.409 10.4638 19.8928 10.689C19.7193 10.7647 19.4906 10.8176 19.0937 10.8459C18.6894 10.8748 18.1721 10.8753 17.4286 10.8753C16.6851 10.8753 16.1678 10.8748 15.7636 10.8459C15.3667 10.8176 15.1379 10.7647 14.9645 10.689C14.4482 10.4638 14.0362 10.0518 13.811 9.53558C13.7353 9.36212 13.6824 9.13337 13.6541 8.73648C13.6252 8.33223 13.6248 7.8149 13.6248 7.07143Z" fill="#0A256C" stroke="#0A256C" stroke-width="1.53516"/>
<path d="M13.6248 17.9284C13.6248 17.1849 13.6252 16.6676 13.6541 16.2633C13.6824 15.8664 13.7353 15.6377 13.811 15.4642C14.0362 14.948 14.4482 14.536 14.9645 14.3108C15.1379 14.2351 15.3667 14.1822 15.7636 14.1538C16.1678 14.125 16.6851 14.1245 17.4286 14.1245C18.1721 14.1245 18.6894 14.125 19.0937 14.1538C19.4906 14.1822 19.7193 14.2351 19.8928 14.3108C20.409 14.536 20.821 14.948 21.0462 15.4642C21.1219 15.6377 21.1748 15.8664 21.2031 16.2633C21.232 16.6676 21.2325 17.1849 21.2325 17.9284C21.2325 18.6718 21.232 19.1892 21.2031 19.5934C21.1748 19.9903 21.1219 20.2191 21.0462 20.3925C20.821 20.9087 20.409 21.3207 19.8928 21.5459C19.7193 21.6216 19.4906 21.6745 19.0937 21.7029C18.6894 21.7318 18.1721 21.7322 17.4286 21.7322C16.6851 21.7322 16.1678 21.7318 15.7636 21.7029C15.3667 21.6745 15.1379 21.6216 14.9645 21.5459C14.4482 21.3207 14.0362 20.9087 13.811 20.3925C13.7353 20.2191 13.6824 19.9903 13.6541 19.5934C13.6252 19.1892 13.6248 18.6718 13.6248 17.9284Z" fill="#0A256C" stroke="#0A256C" stroke-width="1.53516"/>
</svg>
