<svg width="52" height="52" viewBox="0 0 52 52" fill="none" xmlns="http://www.w3.org/2000/svg">
<rect width="52" height="52" rx="26" fill="#0A256C"/>
<path d="M26.5 25C26.5 25.2761 26.2761 25.5 26 25.5C25.7239 25.5 25.5 25.2761 25.5 25C25.5 24.7239 25.7239 24.5 26 24.5C26.2761 24.5 26.5 24.7239 26.5 25Z" fill="white" stroke="white"/>
<path d="M30 26C30.5523 26 31 25.5523 31 25C31 24.4477 30.5523 24 30 24C29.4477 24 29 24.4477 29 25C29 25.5523 29.4477 26 30 26Z" fill="white"/>
<path d="M22 26C22.5523 26 23 25.5523 23 25C23 24.4477 22.5523 24 22 24C21.4477 24 21 24.4477 21 25C21 25.5523 21.4477 26 22 26Z" fill="white"/>
<path d="M33 17H19C18.2044 17 17.4413 17.3161 16.8787 17.8787C16.3161 18.4413 16 19.2044 16 20V35C16.0003 35.1772 16.0477 35.3511 16.1373 35.504C16.2269 35.6569 16.3555 35.7832 16.51 35.87C16.6595 35.9547 16.8282 35.9995 17 36C17.1795 35.9999 17.3556 35.9516 17.51 35.86L22 33.14C22.166 33.0412 22.357 32.9926 22.55 33H33C33.7956 33 34.5587 32.6839 35.1213 32.1213C35.6839 31.5587 36 30.7956 36 30V20C36 19.2044 35.6839 18.4413 35.1213 17.8787C34.5587 17.3161 33.7956 17 33 17ZM34 30C34 30.2652 33.8946 30.5196 33.7071 30.7071C33.5196 30.8946 33.2652 31 33 31H22.55C22.0038 30.9996 21.4679 31.1482 21 31.43L18 33.23V20C18 19.7348 18.1054 19.4804 18.2929 19.2929C18.4804 19.1054 18.7348 19 19 19H33C33.2652 19 33.5196 19.1054 33.7071 19.2929C33.8946 19.4804 34 19.7348 34 20V30Z" fill="white"/>
</svg>
