<svg width="20" height="21" viewBox="0 0 20 21" fill="none" xmlns="http://www.w3.org/2000/svg">
<path fill-rule="evenodd" clip-rule="evenodd" d="M4.56008 3.3893C2.01778 5.27703 0.746623 6.2209 0.247368 7.61512C0.207318 7.72696 0.171295 7.84027 0.139372 7.95481C-0.258584 9.38267 0.226953 10.9099 1.19803 13.9643C2.1691 17.0187 2.65464 18.5459 3.7978 19.462C3.8895 19.5355 3.98381 19.6055 4.08054 19.672C5.28631 20.5 6.85754 20.5 10 20.5C13.1425 20.5 14.7137 20.5 15.9195 19.672C16.0162 19.6055 16.1105 19.5355 16.2022 19.462C17.3454 18.5459 17.8309 17.0187 18.802 13.9643C19.773 10.9099 20.2586 9.38267 19.8606 7.95481C19.8287 7.84027 19.7927 7.72696 19.7526 7.61512C19.2534 6.2209 17.9822 5.27704 15.4399 3.38931C12.8976 1.50158 11.6265 0.557702 10.1747 0.503275C10.0583 0.498908 9.94171 0.498908 9.82526 0.503275C8.37354 0.557702 7.10238 1.50157 4.56008 3.3893ZM8.09337 15.1821C7.6985 15.1821 7.37839 15.5093 7.37839 15.9129C7.37839 16.3164 7.6985 16.6436 8.09337 16.6436H11.9066C12.3015 16.6436 12.6216 16.3164 12.6216 15.9129C12.6216 15.5093 12.3015 15.1821 11.9066 15.1821H8.09337Z" fill="#0A256C"/>
</svg>
