<svg width="24" height="25" viewBox="0 0 24 25" fill="none" xmlns="http://www.w3.org/2000/svg">
<path d="M13.55 20.66C13.29 20.77 13.01 20.87 12.71 20.97L11.13 21.49C7.15998 22.77 5.06997 21.7 3.77997 17.73L2.49997 13.78C1.21997 9.80998 2.27997 7.70998 6.24997 6.42998L7.78997 5.91998C7.59997 6.39998 7.43997 6.94998 7.28997 7.56998L6.30997 11.76C5.20997 16.47 6.81997 19.07 11.53 20.19L13.21 20.59C13.32 20.62 13.44 20.64 13.55 20.66Z" fill="#0A256C"/>
<path d="M17.1701 3.71001L15.5001 3.32001C12.1601 2.53001 10.1701 3.18001 9.00006 5.60001C8.70006 6.21001 8.46006 6.95001 8.26006 7.80001L7.28006 11.99C6.30006 16.17 7.59006 18.23 11.7601 19.22L13.4401 19.62C14.0201 19.76 14.5601 19.85 15.0601 19.89C18.1801 20.19 19.8401 18.73 20.6801 15.12L21.6601 10.94C22.6401 6.76001 21.3601 4.69001 17.1701 3.71001Z" fill="#0A256C"/>
</svg>
