<svg width="21" height="20" viewBox="0 0 21 20" fill="none" xmlns="http://www.w3.org/2000/svg">
<path d="M5.31989 8.56L6.37988 7.5L5.31989 6.44L6.37988 5.38L8.49988 7.5L6.37988 9.62L5.31989 8.56ZM2.49989 7C2.52989 7 2.54989 7.01 2.57989 7.01C3.76989 4.07 6.63988 2 9.99988 2C12.1899 2 14.1599 2.88 15.6099 4.3C15.7599 3.7 16.0599 3.01 16.4199 2.34C14.6799 0.88 12.4399 0 9.98988 0C5.10988 0 1.04989 3.51 0.179886 8.14C0.739886 7.44 1.58989 7 2.49989 7ZM18.9999 8.5C18.5799 8.5 18.1799 8.41 17.8099 8.28C17.9299 8.83 17.9999 9.41 17.9999 10C17.9999 14.42 14.4199 18 9.99988 18C6.63988 18 3.76989 15.93 2.57989 12.99C2.54989 12.99 2.52989 13 2.49989 13C1.97989 13 1.45989 12.86 0.999886 12.6C0.679886 12.42 0.409886 12.18 0.179886 11.9C1.06989 16.51 5.10988 20 9.97988 20C15.5199 20 19.9999 15.52 19.9999 10C19.9999 9.45 19.9399 8.91 19.8599 8.38C19.5799 8.45 19.2999 8.5 18.9999 8.5ZM18.9999 1C18.9999 1 16.9999 3.9 16.9999 5C16.9999 6.1 17.8999 7 18.9999 7C20.0999 7 20.9999 6.1 20.9999 5C20.9999 3.9 18.9999 1 18.9999 1ZM13.6199 5.38L11.4999 7.5L13.6199 9.62L14.6799 8.56L13.6199 7.5L14.6799 6.44L13.6199 5.38ZM6.55989 15C7.24989 13.81 8.52988 13 9.99988 13C11.4699 13 12.7499 13.81 13.4399 15H15.1199C14.3199 12.95 12.3299 11.5 9.99988 11.5C9.12988 11.5 8.29988 11.7 7.56988 12.07L3.98989 10C3.98989 9.48 3.72989 8.98 3.24989 8.71C2.52989 8.3 1.61989 8.54 1.19989 9.26C0.789886 9.98 1.02989 10.89 1.74989 11.31C2.22989 11.59 2.79989 11.56 3.23989 11.31L6.20988 13.03C5.63988 13.56 5.17988 14.24 4.87989 15H6.55989Z" fill="#7CA816"/>
</svg>
