<svg width="16" height="16" viewBox="0 0 16 16" fill="none" xmlns="http://www.w3.org/2000/svg">
<path d="M10.9467 5.29983C12.5734 6.9265 12.5734 9.56648 10.9467 11.1931C9.32006 12.8198 6.68004 12.8198 5.05337 11.1931C3.42671 9.56648 3.42671 6.9265 5.05337 5.29983C6.68004 3.67317 9.32006 3.67317 10.9467 5.29983Z" stroke="#616161" stroke-linecap="round" stroke-linejoin="round"/>
<path d="M5.5 14.4266C4.16666 13.8933 2.99999 12.9266 2.22666 11.5866C1.46666 10.2733 1.21333 8.81326 1.39333 7.41992" stroke="#616161" stroke-linecap="round" stroke-linejoin="round"/>
<path d="M3.90002 2.98657C5.03336 2.09991 6.45335 1.57324 8.00002 1.57324C9.51335 1.57324 10.9067 2.08657 12.0267 2.9399" stroke="#616161" stroke-linecap="round" stroke-linejoin="round"/>
<path d="M10.5 14.4266C11.8333 13.8933 13 12.9266 13.7733 11.5866C14.5333 10.2733 14.7867 8.81326 14.6067 7.41992" stroke="#616161" stroke-linecap="round" stroke-linejoin="round"/>
</svg>
