<svg width="24" height="24" viewBox="0 0 24 24" fill="none" xmlns="http://www.w3.org/2000/svg">
<path d="M19.9337 11.3622C19.7064 11.3622 19.4884 11.2719 19.3276 11.1112C19.1669 10.9504 19.0766 10.7324 19.0766 10.5051V8.08453C19.0766 4.65596 15.9086 1.9131 12.0137 1.9131C8.11886 1.9131 4.95086 4.69024 4.95086 8.08453V10.5051C4.95086 10.7324 4.86055 10.9504 4.69981 11.1112C4.53906 11.2719 4.32104 11.3622 4.09372 11.3622C3.86639 11.3622 3.64837 11.2719 3.48762 11.1112C3.32688 10.9504 3.23657 10.7324 3.23657 10.5051V8.08453C3.23657 3.72339 7.17943 0.171387 12.0137 0.171387C16.848 0.171387 20.7909 3.72339 20.7909 8.08453V10.5051C20.7918 10.6179 20.7702 10.7298 20.7275 10.8342C20.6847 10.9386 20.6216 11.0335 20.5418 11.1132C20.4621 11.193 20.3672 11.2561 20.2628 11.2989C20.1584 11.3416 20.0465 11.3632 19.9337 11.3622Z" fill="#0A256C"/>
<path d="M17.616 19.4264C17.3887 19.4264 17.1707 19.3361 17.0099 19.1753C16.8492 19.0146 16.7589 18.7966 16.7589 18.5692V10.4298C16.766 10.2073 16.8594 9.99624 17.0194 9.84138C17.1794 9.68651 17.3934 9.59998 17.616 9.6001C20.5714 9.6001 22.9783 11.815 22.9783 14.5304C22.9783 17.2458 20.5714 19.4264 17.616 19.4264ZM18.4732 11.3761V17.623C19.2236 17.4987 19.9089 17.1215 20.4154 16.5539C20.9218 15.9864 21.2189 15.2626 21.2572 14.503C21.2204 13.7421 20.924 13.0167 20.4175 12.4478C19.9109 11.8788 19.2247 11.5006 18.4732 11.3761ZM6.38401 19.4264C3.42859 19.4264 1.02173 17.2184 1.02173 14.503C1.02173 11.7875 3.42859 9.6001 6.38401 9.6001C6.61134 9.6001 6.82936 9.6904 6.99011 9.85115C7.15085 10.0119 7.24116 10.2299 7.24116 10.4572V18.5692C7.24116 18.7966 7.15085 19.0146 6.99011 19.1753C6.82936 19.3361 6.61134 19.4264 6.38401 19.4264ZM5.52687 11.3761C4.77533 11.5006 4.08913 11.8788 3.58257 12.4478C3.076 13.0167 2.77965 13.7421 2.74287 14.503C2.78117 15.2626 3.07821 15.9864 3.58465 16.5539C4.09108 17.1215 4.77643 17.4987 5.52687 17.623V11.3761Z" fill="#0A256C"/>
<path d="M17.3349 22.2169H14.496C14.2687 22.2169 14.0507 22.1266 13.8899 21.9659C13.7292 21.8051 13.6389 21.5871 13.6389 21.3598C13.6389 21.1325 13.7292 20.9144 13.8899 20.7537C14.0507 20.5929 14.2687 20.5026 14.496 20.5026H17.3349C17.7786 20.5026 18.2042 20.3264 18.5179 20.0126C18.8317 19.6988 19.008 19.2732 19.008 18.8295V18.4524C19.008 18.225 19.0983 18.007 19.259 17.8463C19.4198 17.6855 19.6378 17.5952 19.8651 17.5952C20.0925 17.5952 20.3105 17.6855 20.4712 17.8463C20.632 18.007 20.7223 18.225 20.7223 18.4524V18.8295C20.7223 19.7279 20.3654 20.5895 19.7301 21.2248C19.0949 21.86 18.2333 22.2169 17.3349 22.2169Z" fill="#0A256C"/>
<path d="M13.0286 23.8287H11.3349C10.7129 23.8287 10.1164 23.5817 9.67659 23.1419C9.23679 22.7021 8.98972 22.1056 8.98972 21.4836V21.3876C8.99153 20.7668 9.23941 20.1721 9.67901 19.7338C10.1186 19.2954 10.7141 19.0493 11.3349 19.0493H13.0286C13.6487 19.0493 14.2435 19.2957 14.682 19.7342C15.1205 20.1727 15.3669 20.7674 15.3669 21.3876V21.4836C15.3669 22.1044 15.1207 22.6998 14.6824 23.1394C14.2441 23.5791 13.6494 23.8269 13.0286 23.8287ZM11.3486 20.7636C11.1824 20.7636 11.023 20.8291 10.9049 20.9459C10.7868 21.0628 10.7195 21.2215 10.7177 21.3876V21.4836C10.7177 21.6509 10.7842 21.8114 10.9025 21.9297C11.0208 22.048 11.1813 22.1145 11.3486 22.1145H13.0286C13.1947 22.1127 13.3534 22.0454 13.4702 21.9273C13.5871 21.8092 13.6526 21.6497 13.6526 21.4836V21.3876C13.6526 21.2221 13.5868 21.0634 13.4698 20.9464C13.3528 20.8293 13.1941 20.7636 13.0286 20.7636H11.3486Z" fill="#0A256C"/>
</svg>
