<svg width="20" height="20" viewBox="0 0 20 20" fill="none" xmlns="http://www.w3.org/2000/svg">
<path d="M13.3333 3.33317H15C15.442 3.33317 15.866 3.50877 16.1785 3.82133C16.4911 4.13389 16.6667 4.55781 16.6667 4.99984V16.6665C16.6667 17.1085 16.4911 17.5325 16.1785 17.845C15.866 18.1576 15.442 18.3332 15 18.3332H5.00001C4.55798 18.3332 4.13406 18.1576 3.8215 17.845C3.50894 17.5325 3.33334 17.1085 3.33334 16.6665V4.99984C3.33334 4.55781 3.50894 4.13389 3.8215 3.82133C4.13406 3.50877 4.55798 3.33317 5.00001 3.33317H6.66668M7.50001 1.6665H12.5C12.9602 1.6665 13.3333 2.0396 13.3333 2.49984V4.1665C13.3333 4.62674 12.9602 4.99984 12.5 4.99984H7.50001C7.03977 4.99984 6.66668 4.62674 6.66668 4.1665V2.49984C6.66668 2.0396 7.03977 1.6665 7.50001 1.6665Z" stroke="#0A256C" stroke-width="2" stroke-linecap="round" stroke-linejoin="round"/>
</svg>
