<svg width="22" height="20" viewBox="0 0 22 20" fill="none" xmlns="http://www.w3.org/2000/svg">
<path d="M5 8.99994C4.80222 8.99994 4.60888 9.05859 4.44443 9.16847C4.27998 9.27835 4.15181 9.43453 4.07612 9.61726C4.00043 9.79998 3.98063 10.001 4.01921 10.195C4.0578 10.389 4.15304 10.5672 4.29289 10.707C4.43275 10.8469 4.61093 10.9421 4.80491 10.9807C4.99889 11.0193 5.19996 10.9995 5.38268 10.9238C5.56541 10.8481 5.72159 10.72 5.83147 10.5555C5.94135 10.3911 6 10.1977 6 9.99994C6 9.73472 5.89464 9.48037 5.70711 9.29283C5.51957 9.1053 5.26522 8.99994 5 8.99994ZM10.86 7.44994L3.71 0.289941C3.61676 0.196703 3.50607 0.122742 3.38425 0.0722815C3.26243 0.0218212 3.13186 -0.00415039 3 -0.00415039C2.86814 -0.00415039 2.73757 0.0218212 2.61575 0.0722815C2.49393 0.122742 2.38324 0.196703 2.29 0.289941C2.1017 0.478245 1.99591 0.73364 1.99591 0.999941C1.99591 1.26624 2.1017 1.52164 2.29 1.70994L3.59 2.99994H3C2.20435 2.99994 1.44129 3.31601 0.87868 3.87862C0.31607 4.44123 0 5.20429 0 5.99994V13.9999C0 14.7956 0.31607 15.5587 0.87868 16.1213C1.44129 16.6839 2.20435 16.9999 3 16.9999H17.59L20.29 19.7099C20.383 19.8037 20.4936 19.8781 20.6154 19.9288C20.7373 19.9796 20.868 20.0057 21 20.0057C21.132 20.0057 21.2627 19.9796 21.3846 19.9288C21.5064 19.8781 21.617 19.8037 21.71 19.7099C21.8037 19.617 21.8781 19.5064 21.9289 19.3845C21.9797 19.2627 22.0058 19.132 22.0058 18.9999C22.0058 18.8679 21.9797 18.7372 21.9289 18.6154C21.8781 18.4935 21.8037 18.3829 21.71 18.2899L10.86 7.44994ZM10.12 9.53994L11.46 10.8799C11.3185 10.9563 11.1608 10.9975 11 10.9999C10.7348 10.9999 10.4804 10.8946 10.2929 10.707C10.1054 10.5195 10 10.2652 10 9.99994C10.0024 9.83919 10.0436 9.6814 10.12 9.53994ZM3 14.9999C2.73478 14.9999 2.48043 14.8946 2.29289 14.707C2.10536 14.5195 2 14.2652 2 13.9999V5.99994C2 5.73472 2.10536 5.48037 2.29289 5.29283C2.48043 5.1053 2.73478 4.99994 3 4.99994H5.59L8.69 8.09994C8.24713 8.63438 8.00328 9.30586 8 9.99994C8 10.7956 8.31607 11.5587 8.87868 12.1213C9.44129 12.6839 10.2044 12.9999 11 12.9999C11.6941 12.9967 12.3656 12.7528 12.9 12.3099L15.59 14.9999H3ZM19 2.99994H11.66C11.3948 2.99994 11.1404 3.1053 10.9529 3.29283C10.7654 3.48037 10.66 3.73472 10.66 3.99994C10.66 4.26516 10.7654 4.51951 10.9529 4.70705C11.1404 4.89458 11.3948 4.99994 11.66 4.99994H19C19.2652 4.99994 19.5196 5.1053 19.7071 5.29283C19.8946 5.48037 20 5.73472 20 5.99994V13.3399C20 13.6052 20.1054 13.8595 20.2929 14.047C20.4804 14.2346 20.7348 14.3399 21 14.3399C21.2652 14.3399 21.5196 14.2346 21.7071 14.047C21.8946 13.8595 22 13.6052 22 13.3399V5.99994C22 5.20429 21.6839 4.44123 21.1213 3.87862C20.5587 3.31601 19.7956 2.99994 19 2.99994ZM18 9.99994C18 9.80216 17.9414 9.60882 17.8315 9.44437C17.7216 9.27992 17.5654 9.15175 17.3827 9.07606C17.2 9.00037 16.9989 8.98057 16.8049 9.01916C16.6109 9.05774 16.4327 9.15298 16.2929 9.29283C16.153 9.43269 16.0578 9.61087 16.0192 9.80485C15.9806 9.99883 16.0004 10.1999 16.0761 10.3826C16.1518 10.5654 16.28 10.7215 16.4444 10.8314C16.6089 10.9413 16.8022 10.9999 17 10.9999C17.2652 10.9999 17.5196 10.8946 17.7071 10.707C17.8946 10.5195 18 10.2652 18 9.99994Z" fill="#3085FE"/>
</svg>
