<svg width="24" height="24" viewBox="0 0 24 24" fill="none" xmlns="http://www.w3.org/2000/svg">
<path d="M2.76758 6.57143C2.76758 5.82795 2.76803 5.31063 2.79692 4.90638C2.82527 4.50948 2.87817 4.28073 2.95385 4.10727C3.17906 3.59107 3.59107 3.17906 4.10727 2.95385C4.28073 2.87817 4.50948 2.82527 4.90638 2.79692C5.31063 2.76803 5.82795 2.76758 6.57143 2.76758C7.3149 2.76758 7.83223 2.76803 8.23648 2.79692C8.63337 2.82527 8.86212 2.87817 9.03558 2.95385C9.55179 3.17906 9.96379 3.59107 10.189 4.10727C10.2647 4.28073 10.3176 4.50948 10.3459 4.90638C10.3748 5.31063 10.3753 5.82795 10.3753 6.57143C10.3753 7.3149 10.3748 7.83223 10.3459 8.23648C10.3176 8.63337 10.2647 8.86212 10.189 9.03558C9.96379 9.55179 9.55179 9.96379 9.03558 10.189C8.86212 10.2647 8.63337 10.3176 8.23648 10.3459C7.83223 10.3748 7.3149 10.3753 6.57143 10.3753C5.82795 10.3753 5.31063 10.3748 4.90638 10.3459C4.50948 10.3176 4.28073 10.2647 4.10727 10.189C3.59107 9.96379 3.17906 9.55179 2.95385 9.03558C2.87817 8.86212 2.82527 8.63337 2.79692 8.23648C2.76803 7.83223 2.76758 7.3149 2.76758 6.57143Z" stroke="#939FBE" stroke-width="1.53516"/>
<path d="M2.76758 17.4286C2.76758 16.6851 2.76803 16.1678 2.79692 15.7636C2.82527 15.3667 2.87817 15.1379 2.95385 14.9645C3.17906 14.4482 3.59107 14.0362 4.10727 13.811C4.28073 13.7353 4.50948 13.6824 4.90638 13.6541C5.31063 13.6252 5.82795 13.6248 6.57143 13.6248C7.3149 13.6248 7.83223 13.6252 8.23648 13.6541C8.63337 13.6824 8.86212 13.7353 9.03558 13.811C9.55179 14.0362 9.96379 14.4482 10.189 14.9645C10.2647 15.1379 10.3176 15.3667 10.3459 15.7636C10.3748 16.1678 10.3753 16.6851 10.3753 17.4286C10.3753 18.1721 10.3748 18.6894 10.3459 19.0937C10.3176 19.4906 10.2647 19.7193 10.189 19.8928C9.96379 20.409 9.55179 20.821 9.03558 21.0462C8.86212 21.1219 8.63337 21.1748 8.23648 21.2031C7.83223 21.232 7.3149 21.2325 6.57143 21.2325C5.82795 21.2325 5.31063 21.232 4.90638 21.2031C4.50948 21.1748 4.28073 21.1219 4.10727 21.0462C3.59107 20.821 3.17906 20.409 2.95385 19.8928C2.87817 19.7193 2.82527 19.4906 2.79692 19.0937C2.76803 18.6894 2.76758 18.1721 2.76758 17.4286Z" stroke="#939FBE" stroke-width="1.53516"/>
<path d="M13.6248 6.57143C13.6248 5.82795 13.6252 5.31063 13.6541 4.90638C13.6825 4.50948 13.7354 4.28073 13.8111 4.10727C14.0363 3.59107 14.4483 3.17906 14.9645 2.95385C15.1379 2.87817 15.3667 2.82527 15.7636 2.79692C16.1678 2.76803 16.6852 2.76758 17.4286 2.76758C18.1721 2.76758 18.6894 2.76803 19.0937 2.79692C19.4906 2.82527 19.7193 2.87817 19.8928 2.95385C20.409 3.17906 20.821 3.59107 21.0462 4.10727C21.1219 4.28073 21.1748 4.50948 21.2031 4.90638C21.232 5.31063 21.2325 5.82795 21.2325 6.57143C21.2325 7.3149 21.232 7.83223 21.2031 8.23648C21.1748 8.63337 21.1219 8.86212 21.0462 9.03558C20.821 9.55179 20.409 9.96379 19.8928 10.189C19.7193 10.2647 19.4906 10.3176 19.0937 10.3459C18.6894 10.3748 18.1721 10.3753 17.4286 10.3753C16.6852 10.3753 16.1678 10.3748 15.7636 10.3459C15.3667 10.3176 15.1379 10.2647 14.9645 10.189C14.4483 9.96379 14.0363 9.55179 13.8111 9.03558C13.7354 8.86212 13.6825 8.63337 13.6541 8.23648C13.6252 7.83223 13.6248 7.3149 13.6248 6.57143Z" stroke="#939FBE" stroke-width="1.53516"/>
<path d="M13.6248 17.4286C13.6248 16.6851 13.6252 16.1678 13.6541 15.7636C13.6825 15.3667 13.7354 15.1379 13.8111 14.9645C14.0363 14.4482 14.4483 14.0362 14.9645 13.811C15.1379 13.7353 15.3667 13.6824 15.7636 13.6541C16.1678 13.6252 16.6852 13.6248 17.4286 13.6248C18.1721 13.6248 18.6894 13.6252 19.0937 13.6541C19.4906 13.6824 19.7193 13.7353 19.8928 13.811C20.409 14.0362 20.821 14.4482 21.0462 14.9645C21.1219 15.1379 21.1748 15.3667 21.2031 15.7636C21.232 16.1678 21.2325 16.6851 21.2325 17.4286C21.2325 18.1721 21.232 18.6894 21.2031 19.0937C21.1748 19.4906 21.1219 19.7193 21.0462 19.8928C20.821 20.409 20.409 20.821 19.8928 21.0462C19.7193 21.1219 19.4906 21.1748 19.0937 21.2031C18.6894 21.232 18.1721 21.2325 17.4286 21.2325C16.6852 21.2325 16.1678 21.232 15.7636 21.2031C15.3667 21.1748 15.1379 21.1219 14.9645 21.0462C14.4483 20.821 14.0363 20.409 13.8111 19.8928C13.7354 19.7193 13.6825 19.4906 13.6541 19.0937C13.6252 18.6894 13.6248 18.1721 13.6248 17.4286Z" stroke="#939FBE" stroke-width="1.53516"/>
</svg>
